solid plug
  facet normal 0.000000000e+00 0.000000000e+00 -1.000000000e+00
    outer loop
      vertex 0.000000000e+00 0.000000000e+00 -5.196152423e-02
      vertex 2.089887926e-02 2.058359947e-03 -5.196152423e-02
      vertex 2.100000000e-02 0.000000000e+00 -5.196152423e-02
    endloop
  endfacet
  facet normal 0.000000000e+00 0.000000000e+00 -1.000000000e+00
    outer loop
      vertex 0.000000000e+00 0.000000000e+00 -5.196152423e-02
      vertex 2.059649089e-02 4.096896762e-03 -5.196152423e-02
      vertex 2.089887926e-02 2.058359947e-03 -5.196152423e-02
    endloop
  endfacet
  facet normal 0.000000000e+00 0.000000000e+00 -1.000000000e+00
    outer loop
      vertex 0.000000000e+00 0.000000000e+00 -5.196152423e-02
      vertex 2.009574705e-02 6.095978222e-03 -5.196152423e-02
      vertex 2.059649089e-02 4.096896762e-03 -5.196152423e-02
    endloop
  endfacet
  facet normal 0.000000000e+00 0.000000000e+00 -1.000000000e+00
    outer loop
      vertex 0.000000000e+00 0.000000000e+00 -5.196152423e-02
      vertex 1.940147018e-02 8.036352080e-03 -5.196152423e-02
      vertex 2.009574705e-02 6.095978222e-03 -5.196152423e-02
    endloop
  endfacet
  facet normal 0.000000000e+00 0.000000000e+00 -1.000000000e+00
    outer loop
      vertex 0.000000000e+00 0.000000000e+00 -5.196152423e-02
      vertex 1.852034655e-02 9.899331473e-03 -5.196152423e-02
      vertex 1.940147018e-02 8.036352080e-03 -5.196152423e-02
    endloop
  endfacet
  facet normal 0.000000000e+00 0.000000000e+00 -1.000000000e+00
    outer loop
      vertex 0.000000000e+00 0.000000000e+00 -5.196152423e-02
      vertex 1.746086186e-02 1.166697489e-02 -5.196152423e-02
      vertex 1.852034655e-02 9.899331473e-03 -5.196152423e-02
    endloop
  endfacet
  facet normal 0.000000000e+00 0.000000000e+00 -1.000000000e+00
    outer loop
      vertex 0.000000000e+00 0.000000000e+00 -5.196152423e-02
      vertex 1.623321952e-02 1.332225897e-02 -5.196152423e-02
      vertex 1.746086186e-02 1.166697489e-02 -5.196152423e-02
    endloop
  endfacet
  facet normal 0.000000000e+00 0.000000000e+00 -1.000000000e+00
    outer loop
      vertex 0.000000000e+00 0.000000000e+00 -5.196152423e-02
      vertex 1.484924240e-02 1.484924240e-02 -5.196152423e-02
      vertex 1.623321952e-02 1.332225897e-02 -5.196152423e-02
    endloop
  endfacet
  facet normal 0.000000000e+00 0.000000000e+00 -1.000000000e+00
    outer loop
      vertex 0.000000000e+00 0.000000000e+00 -5.196152423e-02
      vertex 1.332225897e-02 1.623321952e-02 -5.196152423e-02
      vertex 1.484924240e-02 1.484924240e-02 -5.196152423e-02
    endloop
  endfacet
  facet normal 0.000000000e+00 0.000000000e+00 -1.000000000e+00
    outer loop
      vertex 0.000000000e+00 0.000000000e+00 -5.196152423e-02
      vertex 1.166697489e-02 1.746086186e-02 -5.196152423e-02
      vertex 1.332225897e-02 1.623321952e-02 -5.196152423e-02
    endloop
  endfacet
  facet normal 0.000000000e+00 0.000000000e+00 -1.000000000e+00
    outer loop
      vertex 0.000000000e+00 0.000000000e+00 -5.196152423e-02
      vertex 9.899331473e-03 1.852034655e-02 -5.196152423e-02
      vertex 1.166697489e-02 1.746086186e-02 -5.196152423e-02
    endloop
  endfacet
  facet normal 0.000000000e+00 0.000000000e+00 -1.000000000e+00
    outer loop
      vertex 0.000000000e+00 0.000000000e+00 -5.196152423e-02
      vertex 8.036352080e-03 1.940147018e-02 -5.196152423e-02
      vertex 9.899331473e-03 1.852034655e-02 -5.196152423e-02
    endloop
  endfacet
  facet normal 0.000000000e+00 0.000000000e+00 -1.000000000e+00
    outer loop
      vertex 0.000000000e+00 0.000000000e+00 -5.196152423e-02
      vertex 6.095978222e-03 2.009574705e-02 -5.196152423e-02
      vertex 8.036352080e-03 1.940147018e-02 -5.196152423e-02
    endloop
  endfacet
  facet normal 0.000000000e+00 0.000000000e+00 -1.000000000e+00
    outer loop
      vertex 0.000000000e+00 0.000000000e+00 -5.196152423e-02
      vertex 4.096896762e-03 2.059649089e-02 -5.196152423e-02
      vertex 6.095978222e-03 2.009574705e-02 -5.196152423e-02
    endloop
  endfacet
  facet normal 0.000000000e+00 0.000000000e+00 -1.000000000e+00
    outer loop
      vertex 0.000000000e+00 0.000000000e+00 -5.196152423e-02
      vertex 2.058359947e-03 2.089887926e-02 -5.196152423e-02
      vertex 4.096896762e-03 2.059649089e-02 -5.196152423e-02
    endloop
  endfacet
  facet normal 0.000000000e+00 0.000000000e+00 -1.000000000e+00
    outer loop
      vertex 0.000000000e+00 0.000000000e+00 -5.196152423e-02
      vertex 1.285879139e-18 2.100000000e-02 -5.196152423e-02
      vertex 2.058359947e-03 2.089887926e-02 -5.196152423e-02
    endloop
  endfacet
  facet normal 0.000000000e+00 0.000000000e+00 -1.000000000e+00
    outer loop
      vertex 0.000000000e+00 0.000000000e+00 -5.196152423e-02
      vertex -2.058359947e-03 2.089887926e-02 -5.196152423e-02
      vertex 1.285879139e-18 2.100000000e-02 -5.196152423e-02
    endloop
  endfacet
  facet normal 0.000000000e+00 0.000000000e+00 -1.000000000e+00
    outer loop
      vertex 0.000000000e+00 0.000000000e+00 -5.196152423e-02
      vertex -4.096896762e-03 2.059649089e-02 -5.196152423e-02
      vertex -2.058359947e-03 2.089887926e-02 -5.196152423e-02
    endloop
  endfacet
  facet normal 0.000000000e+00 0.000000000e+00 -1.000000000e+00
    outer loop
      vertex 0.000000000e+00 0.000000000e+00 -5.196152423e-02
      vertex -6.095978222e-03 2.009574705e-02 -5.196152423e-02
      vertex -4.096896762e-03 2.059649089e-02 -5.196152423e-02
    endloop
  endfacet
  facet normal 0.000000000e+00 0.000000000e+00 -1.000000000e+00
    outer loop
      vertex 0.000000000e+00 0.000000000e+00 -5.196152423e-02
      vertex -8.036352080e-03 1.940147018e-02 -5.196152423e-02
      vertex -6.095978222e-03 2.009574705e-02 -5.196152423e-02
    endloop
  endfacet
  facet normal 0.000000000e+00 0.000000000e+00 -1.000000000e+00
    outer loop
      vertex 0.000000000e+00 0.000000000e+00 -5.196152423e-02
      vertex -9.899331473e-03 1.852034655e-02 -5.196152423e-02
      vertex -8.036352080e-03 1.940147018e-02 -5.196152423e-02
    endloop
  endfacet
  facet normal 0.000000000e+00 0.000000000e+00 -1.000000000e+00
    outer loop
      vertex 0.000000000e+00 0.000000000e+00 -5.196152423e-02
      vertex -1.166697489e-02 1.746086186e-02 -5.196152423e-02
      vertex -9.899331473e-03 1.852034655e-02 -5.196152423e-02
    endloop
  endfacet
  facet normal 0.000000000e+00 0.000000000e+00 -1.000000000e+00
    outer loop
      vertex 0.000000000e+00 0.000000000e+00 -5.196152423e-02
      vertex -1.332225897e-02 1.623321952e-02 -5.196152423e-02
      vertex -1.166697489e-02 1.746086186e-02 -5.196152423e-02
    endloop
  endfacet
  facet normal 0.000000000e+00 0.000000000e+00 -1.000000000e+00
    outer loop
      vertex 0.000000000e+00 0.000000000e+00 -5.196152423e-02
      vertex -1.484924240e-02 1.484924240e-02 -5.196152423e-02
      vertex -1.332225897e-02 1.623321952e-02 -5.196152423e-02
    endloop
  endfacet
  facet normal 0.000000000e+00 0.000000000e+00 -1.000000000e+00
    outer loop
      vertex 0.000000000e+00 0.000000000e+00 -5.196152423e-02
      vertex -1.623321952e-02 1.332225897e-02 -5.196152423e-02
      vertex -1.484924240e-02 1.484924240e-02 -5.196152423e-02
    endloop
  endfacet
  facet normal 0.000000000e+00 0.000000000e+00 -1.000000000e+00
    outer loop
      vertex 0.000000000e+00 0.000000000e+00 -5.196152423e-02
      vertex -1.746086186e-02 1.166697489e-02 -5.196152423e-02
      vertex -1.623321952e-02 1.332225897e-02 -5.196152423e-02
    endloop
  endfacet
  facet normal 0.000000000e+00 0.000000000e+00 -1.000000000e+00
    outer loop
      vertex 0.000000000e+00 0.000000000e+00 -5.196152423e-02
      vertex -1.852034655e-02 9.899331473e-03 -5.196152423e-02
      vertex -1.746086186e-02 1.166697489e-02 -5.196152423e-02
    endloop
  endfacet
  facet normal 0.000000000e+00 0.000000000e+00 -1.000000000e+00
    outer loop
      vertex 0.000000000e+00 0.000000000e+00 -5.196152423e-02
      vertex -1.940147018e-02 8.036352080e-03 -5.196152423e-02
      vertex -1.852034655e-02 9.899331473e-03 -5.196152423e-02
    endloop
  endfacet
  facet normal 0.000000000e+00 0.000000000e+00 -1.000000000e+00
    outer loop
      vertex 0.000000000e+00 0.000000000e+00 -5.196152423e-02
      vertex -2.009574705e-02 6.095978222e-03 -5.196152423e-02
      vertex -1.940147018e-02 8.036352080e-03 -5.196152423e-02
    endloop
  endfacet
  facet normal 0.000000000e+00 0.000000000e+00 -1.000000000e+00
    outer loop
      vertex 0.000000000e+00 0.000000000e+00 -5.196152423e-02
      vertex -2.059649089e-02 4.096896762e-03 -5.196152423e-02
      vertex -2.009574705e-02 6.095978222e-03 -5.196152423e-02
    endloop
  endfacet
  facet normal 0.000000000e+00 0.000000000e+00 -1.000000000e+00
    outer loop
      vertex 0.000000000e+00 0.000000000e+00 -5.196152423e-02
      vertex -2.089887926e-02 2.058359947e-03 -5.196152423e-02
      vertex -2.059649089e-02 4.096896762e-03 -5.196152423e-02
    endloop
  endfacet
  facet normal 0.000000000e+00 0.000000000e+00 -1.000000000e+00
    outer loop
      vertex 0.000000000e+00 0.000000000e+00 -5.196152423e-02
      vertex -2.100000000e-02 2.571758278e-18 -5.196152423e-02
      vertex -2.089887926e-02 2.058359947e-03 -5.196152423e-02
    endloop
  endfacet
  facet normal -0.000000000e+00 0.000000000e+00 -1.000000000e+00
    outer loop
      vertex 0.000000000e+00 0.000000000e+00 -5.196152423e-02
      vertex -2.089887926e-02 -2.058359947e-03 -5.196152423e-02
      vertex -2.100000000e-02 2.571758278e-18 -5.196152423e-02
    endloop
  endfacet
  facet normal 0.000000000e+00 0.000000000e+00 -1.000000000e+00
    outer loop
      vertex 0.000000000e+00 0.000000000e+00 -5.196152423e-02
      vertex -2.059649089e-02 -4.096896762e-03 -5.196152423e-02
      vertex -2.089887926e-02 -2.058359947e-03 -5.196152423e-02
    endloop
  endfacet
  facet normal 0.000000000e+00 0.000000000e+00 -1.000000000e+00
    outer loop
      vertex 0.000000000e+00 0.000000000e+00 -5.196152423e-02
      vertex -2.009574705e-02 -6.095978222e-03 -5.196152423e-02
      vertex -2.059649089e-02 -4.096896762e-03 -5.196152423e-02
    endloop
  endfacet
  facet normal 0.000000000e+00 0.000000000e+00 -1.000000000e+00
    outer loop
      vertex 0.000000000e+00 0.000000000e+00 -5.196152423e-02
      vertex -1.940147018e-02 -8.036352080e-03 -5.196152423e-02
      vertex -2.009574705e-02 -6.095978222e-03 -5.196152423e-02
    endloop
  endfacet
  facet normal 0.000000000e+00 0.000000000e+00 -1.000000000e+00
    outer loop
      vertex 0.000000000e+00 0.000000000e+00 -5.196152423e-02
      vertex -1.852034655e-02 -9.899331473e-03 -5.196152423e-02
      vertex -1.940147018e-02 -8.036352080e-03 -5.196152423e-02
    endloop
  endfacet
  facet normal 0.000000000e+00 0.000000000e+00 -1.000000000e+00
    outer loop
      vertex 0.000000000e+00 0.000000000e+00 -5.196152423e-02
      vertex -1.746086186e-02 -1.166697489e-02 -5.196152423e-02
      vertex -1.852034655e-02 -9.899331473e-03 -5.196152423e-02
    endloop
  endfacet
  facet normal 0.000000000e+00 0.000000000e+00 -1.000000000e+00
    outer loop
      vertex 0.000000000e+00 0.000000000e+00 -5.196152423e-02
      vertex -1.623321952e-02 -1.332225897e-02 -5.196152423e-02
      vertex -1.746086186e-02 -1.166697489e-02 -5.196152423e-02
    endloop
  endfacet
  facet normal 0.000000000e+00 0.000000000e+00 -1.000000000e+00
    outer loop
      vertex 0.000000000e+00 0.000000000e+00 -5.196152423e-02
      vertex -1.484924240e-02 -1.484924240e-02 -5.196152423e-02
      vertex -1.623321952e-02 -1.332225897e-02 -5.196152423e-02
    endloop
  endfacet
  facet normal 0.000000000e+00 0.000000000e+00 -1.000000000e+00
    outer loop
      vertex 0.000000000e+00 0.000000000e+00 -5.196152423e-02
      vertex -1.332225897e-02 -1.623321952e-02 -5.196152423e-02
      vertex -1.484924240e-02 -1.484924240e-02 -5.196152423e-02
    endloop
  endfacet
  facet normal 0.000000000e+00 0.000000000e+00 -1.000000000e+00
    outer loop
      vertex 0.000000000e+00 0.000000000e+00 -5.196152423e-02
      vertex -1.166697489e-02 -1.746086186e-02 -5.196152423e-02
      vertex -1.332225897e-02 -1.623321952e-02 -5.196152423e-02
    endloop
  endfacet
  facet normal 0.000000000e+00 0.000000000e+00 -1.000000000e+00
    outer loop
      vertex 0.000000000e+00 0.000000000e+00 -5.196152423e-02
      vertex -9.899331473e-03 -1.852034655e-02 -5.196152423e-02
      vertex -1.166697489e-02 -1.746086186e-02 -5.196152423e-02
    endloop
  endfacet
  facet normal 0.000000000e+00 0.000000000e+00 -1.000000000e+00
    outer loop
      vertex 0.000000000e+00 0.000000000e+00 -5.196152423e-02
      vertex -8.036352080e-03 -1.940147018e-02 -5.196152423e-02
      vertex -9.899331473e-03 -1.852034655e-02 -5.196152423e-02
    endloop
  endfacet
  facet normal 0.000000000e+00 0.000000000e+00 -1.000000000e+00
    outer loop
      vertex 0.000000000e+00 0.000000000e+00 -5.196152423e-02
      vertex -6.095978222e-03 -2.009574705e-02 -5.196152423e-02
      vertex -8.036352080e-03 -1.940147018e-02 -5.196152423e-02
    endloop
  endfacet
  facet normal 0.000000000e+00 0.000000000e+00 -1.000000000e+00
    outer loop
      vertex 0.000000000e+00 0.000000000e+00 -5.196152423e-02
      vertex -4.096896762e-03 -2.059649089e-02 -5.196152423e-02
      vertex -6.095978222e-03 -2.009574705e-02 -5.196152423e-02
    endloop
  endfacet
  facet normal 0.000000000e+00 0.000000000e+00 -1.000000000e+00
    outer loop
      vertex 0.000000000e+00 0.000000000e+00 -5.196152423e-02
      vertex -2.058359947e-03 -2.089887926e-02 -5.196152423e-02
      vertex -4.096896762e-03 -2.059649089e-02 -5.196152423e-02
    endloop
  endfacet
  facet normal 0.000000000e+00 0.000000000e+00 -1.000000000e+00
    outer loop
      vertex 0.000000000e+00 0.000000000e+00 -5.196152423e-02
      vertex -3.857637417e-18 -2.100000000e-02 -5.196152423e-02
      vertex -2.058359947e-03 -2.089887926e-02 -5.196152423e-02
    endloop
  endfacet
  facet normal 0.000000000e+00 -0.000000000e+00 -1.000000000e+00
    outer loop
      vertex 0.000000000e+00 0.000000000e+00 -5.196152423e-02
      vertex 2.058359947e-03 -2.089887926e-02 -5.196152423e-02
      vertex -3.857637417e-18 -2.100000000e-02 -5.196152423e-02
    endloop
  endfacet
  facet normal 0.000000000e+00 0.000000000e+00 -1.000000000e+00
    outer loop
      vertex 0.000000000e+00 0.000000000e+00 -5.196152423e-02
      vertex 4.096896762e-03 -2.059649089e-02 -5.196152423e-02
      vertex 2.058359947e-03 -2.089887926e-02 -5.196152423e-02
    endloop
  endfacet
  facet normal 0.000000000e+00 0.000000000e+00 -1.000000000e+00
    outer loop
      vertex 0.000000000e+00 0.000000000e+00 -5.196152423e-02
      vertex 6.095978222e-03 -2.009574705e-02 -5.196152423e-02
      vertex 4.096896762e-03 -2.059649089e-02 -5.196152423e-02
    endloop
  endfacet
  facet normal 0.000000000e+00 0.000000000e+00 -1.000000000e+00
    outer loop
      vertex 0.000000000e+00 0.000000000e+00 -5.196152423e-02
      vertex 8.036352080e-03 -1.940147018e-02 -5.196152423e-02
      vertex 6.095978222e-03 -2.009574705e-02 -5.196152423e-02
    endloop
  endfacet
  facet normal 0.000000000e+00 0.000000000e+00 -1.000000000e+00
    outer loop
      vertex 0.000000000e+00 0.000000000e+00 -5.196152423e-02
      vertex 9.899331473e-03 -1.852034655e-02 -5.196152423e-02
      vertex 8.036352080e-03 -1.940147018e-02 -5.196152423e-02
    endloop
  endfacet
  facet normal 0.000000000e+00 0.000000000e+00 -1.000000000e+00
    outer loop
      vertex 0.000000000e+00 0.000000000e+00 -5.196152423e-02
      vertex 1.166697489e-02 -1.746086186e-02 -5.196152423e-02
      vertex 9.899331473e-03 -1.852034655e-02 -5.196152423e-02
    endloop
  endfacet
  facet normal 0.000000000e+00 0.000000000e+00 -1.000000000e+00
    outer loop
      vertex 0.000000000e+00 0.000000000e+00 -5.196152423e-02
      vertex 1.332225897e-02 -1.623321952e-02 -5.196152423e-02
      vertex 1.166697489e-02 -1.746086186e-02 -5.196152423e-02
    endloop
  endfacet
  facet normal 0.000000000e+00 0.000000000e+00 -1.000000000e+00
    outer loop
      vertex 0.000000000e+00 0.000000000e+00 -5.196152423e-02
      vertex 1.484924240e-02 -1.484924240e-02 -5.196152423e-02
      vertex 1.332225897e-02 -1.623321952e-02 -5.196152423e-02
    endloop
  endfacet
  facet normal 0.000000000e+00 0.000000000e+00 -1.000000000e+00
    outer loop
      vertex 0.000000000e+00 0.000000000e+00 -5.196152423e-02
      vertex 1.623321952e-02 -1.332225897e-02 -5.196152423e-02
      vertex 1.484924240e-02 -1.484924240e-02 -5.196152423e-02
    endloop
  endfacet
  facet normal 0.000000000e+00 0.000000000e+00 -1.000000000e+00
    outer loop
      vertex 0.000000000e+00 0.000000000e+00 -5.196152423e-02
      vertex 1.746086186e-02 -1.166697489e-02 -5.196152423e-02
      vertex 1.623321952e-02 -1.332225897e-02 -5.196152423e-02
    endloop
  endfacet
  facet normal 0.000000000e+00 0.000000000e+00 -1.000000000e+00
    outer loop
      vertex 0.000000000e+00 0.000000000e+00 -5.196152423e-02
      vertex 1.852034655e-02 -9.899331473e-03 -5.196152423e-02
      vertex 1.746086186e-02 -1.166697489e-02 -5.196152423e-02
    endloop
  endfacet
  facet normal 0.000000000e+00 0.000000000e+00 -1.000000000e+00
    outer loop
      vertex 0.000000000e+00 0.000000000e+00 -5.196152423e-02
      vertex 1.940147018e-02 -8.036352080e-03 -5.196152423e-02
      vertex 1.852034655e-02 -9.899331473e-03 -5.196152423e-02
    endloop
  endfacet
  facet normal 0.000000000e+00 0.000000000e+00 -1.000000000e+00
    outer loop
      vertex 0.000000000e+00 0.000000000e+00 -5.196152423e-02
      vertex 2.009574705e-02 -6.095978222e-03 -5.196152423e-02
      vertex 1.940147018e-02 -8.036352080e-03 -5.196152423e-02
    endloop
  endfacet
  facet normal 0.000000000e+00 0.000000000e+00 -1.000000000e+00
    outer loop
      vertex 0.000000000e+00 0.000000000e+00 -5.196152423e-02
      vertex 2.059649089e-02 -4.096896762e-03 -5.196152423e-02
      vertex 2.009574705e-02 -6.095978222e-03 -5.196152423e-02
    endloop
  endfacet
  facet normal 0.000000000e+00 0.000000000e+00 -1.000000000e+00
    outer loop
      vertex 0.000000000e+00 0.000000000e+00 -5.196152423e-02
      vertex 2.089887926e-02 -2.058359947e-03 -5.196152423e-02
      vertex 2.059649089e-02 -4.096896762e-03 -5.196152423e-02
    endloop
  endfacet
  facet normal 0.000000000e+00 0.000000000e+00 -1.000000000e+00
    outer loop
      vertex 0.000000000e+00 0.000000000e+00 -5.196152423e-02
      vertex 2.100000000e-02 0.000000000e+00 -5.196152423e-02
      vertex 2.089887926e-02 -2.058359947e-03 -5.196152423e-02
    endloop
  endfacet
endsolid plug
