solid silo
  facet normal -8.652426762e-01 -4.250664697e-02 4.995480920e-01
    outer loop
      vertex 2.000000000e-02 0.000000000e+00 -5.196152423e-02
      vertex 5.000000000e-02 0.000000000e+00 0.000000000e+00
      vertex 1.990369453e-02 1.960342807e-03 -5.196152423e-02
    endloop
  endfacet
  facet normal -8.652426762e-01 -4.250664697e-02 4.995480920e-01
    outer loop
      vertex 1.990369453e-02 1.960342807e-03 -5.196152423e-02
      vertex 5.000000000e-02 0.000000000e+00 0.000000000e+00
      vertex 4.975923633e-02 4.900857016e-03 0.000000000e+00
    endloop
  endfacet
  facet normal -8.569099162e-01 -1.271105787e-01 4.995480920e-01
    outer loop
      vertex 1.990369453e-02 1.960342807e-03 -5.196152423e-02
      vertex 4.975923633e-02 4.900857016e-03 0.000000000e+00
      vertex 1.961570561e-02 3.901806440e-03 -5.196152423e-02
    endloop
  endfacet
  facet normal -8.569099162e-01 -1.271105787e-01 4.995480920e-01
    outer loop
      vertex 1.961570561e-02 3.901806440e-03 -5.196152423e-02
      vertex 4.975923633e-02 4.900857016e-03 0.000000000e+00
      vertex 4.903926402e-02 9.754516101e-03 0.000000000e+00
    endloop
  endfacet
  facet normal -8.403246454e-01 -2.104903660e-01 4.995480920e-01
    outer loop
      vertex 1.961570561e-02 3.901806440e-03 -5.196152423e-02
      vertex 4.903926402e-02 9.754516101e-03 0.000000000e+00
      vertex 1.913880671e-02 5.805693545e-03 -5.196152423e-02
    endloop
  endfacet
  facet normal -8.403246454e-01 -2.104903660e-01 4.995480920e-01
    outer loop
      vertex 1.913880671e-02 5.805693545e-03 -5.196152423e-02
      vertex 4.903926402e-02 9.754516101e-03 0.000000000e+00
      vertex 4.784701679e-02 1.451423386e-02 0.000000000e+00
    endloop
  endfacet
  facet normal -8.156465888e-01 -2.918430160e-01 4.995480920e-01
    outer loop
      vertex 1.913880671e-02 5.805693545e-03 -5.196152423e-02
      vertex 4.784701679e-02 1.451423386e-02 0.000000000e+00
      vertex 1.847759065e-02 7.653668647e-03 -5.196152423e-02
    endloop
  endfacet
  facet normal -8.156465888e-01 -2.918430160e-01 4.995480920e-01
    outer loop
      vertex 1.847759065e-02 7.653668647e-03 -5.196152423e-02
      vertex 4.784701679e-02 1.451423386e-02 0.000000000e+00
      vertex 4.619397663e-02 1.913417162e-02 0.000000000e+00
    endloop
  endfacet
  facet normal -7.831134096e-01 -3.703850583e-01 4.995480920e-01
    outer loop
      vertex 1.847759065e-02 7.653668647e-03 -5.196152423e-02
      vertex 4.619397663e-02 1.913417162e-02 0.000000000e+00
      vertex 1.763842529e-02 9.427934737e-03 -5.196152423e-02
    endloop
  endfacet
  facet normal -7.831134096e-01 -3.703850583e-01 4.995480920e-01
    outer loop
      vertex 1.763842529e-02 9.427934737e-03 -5.196152423e-02
      vertex 4.619397663e-02 1.913417162e-02 0.000000000e+00
      vertex 4.409606322e-02 2.356983684e-02 0.000000000e+00
    endloop
  endfacet
  facet normal -7.430384203e-01 -4.453600900e-01 4.995480920e-01
    outer loop
      vertex 1.763842529e-02 9.427934737e-03 -5.196152423e-02
      vertex 4.409606322e-02 2.356983684e-02 0.000000000e+00
      vertex 1.662939225e-02 1.111140466e-02 -5.196152423e-02
    endloop
  endfacet
  facet normal -7.430384203e-01 -4.453600900e-01 4.995480920e-01
    outer loop
      vertex 1.662939225e-02 1.111140466e-02 -5.196152423e-02
      vertex 4.409606322e-02 2.356983684e-02 0.000000000e+00
      vertex 4.157348062e-02 2.777851165e-02 0.000000000e+00
    endloop
  endfacet
  facet normal -6.958075648e-01 -5.160460605e-01 4.995480920e-01
    outer loop
      vertex 1.662939225e-02 1.111140466e-02 -5.196152423e-02
      vertex 4.157348062e-02 2.777851165e-02 0.000000000e+00
      vertex 1.546020907e-02 1.268786568e-02 -5.196152423e-02
    endloop
  endfacet
  facet normal -6.958075648e-01 -5.160460605e-01 4.995480920e-01
    outer loop
      vertex 1.546020907e-02 1.268786568e-02 -5.196152423e-02
      vertex 4.157348062e-02 2.777851165e-02 0.000000000e+00
      vertex 3.865052267e-02 3.171966421e-02 0.000000000e+00
    endloop
  endfacet
  facet normal -6.418757020e-01 -5.817622254e-01 4.995480920e-01
    outer loop
      vertex 1.546020907e-02 1.268786568e-02 -5.196152423e-02
      vertex 3.865052267e-02 3.171966421e-02 0.000000000e+00
      vertex 1.414213562e-02 1.414213562e-02 -5.196152423e-02
    endloop
  endfacet
  facet normal -6.418757020e-01 -5.817622254e-01 4.995480920e-01
    outer loop
      vertex 1.414213562e-02 1.414213562e-02 -5.196152423e-02
      vertex 3.865052267e-02 3.171966421e-02 0.000000000e+00
      vertex 3.535533906e-02 3.535533906e-02 0.000000000e+00
    endloop
  endfacet
  facet normal -5.817622254e-01 -6.418757020e-01 4.995480920e-01
    outer loop
      vertex 1.414213562e-02 1.414213562e-02 -5.196152423e-02
      vertex 3.535533906e-02 3.535533906e-02 0.000000000e+00
      vertex 1.268786568e-02 1.546020907e-02 -5.196152423e-02
    endloop
  endfacet
  facet normal -5.817622254e-01 -6.418757020e-01 4.995480920e-01
    outer loop
      vertex 1.268786568e-02 1.546020907e-02 -5.196152423e-02
      vertex 3.535533906e-02 3.535533906e-02 0.000000000e+00
      vertex 3.171966421e-02 3.865052267e-02 0.000000000e+00
    endloop
  endfacet
  facet normal -5.160460605e-01 -6.958075648e-01 4.995480920e-01
    outer loop
      vertex 1.268786568e-02 1.546020907e-02 -5.196152423e-02
      vertex 3.171966421e-02 3.865052267e-02 0.000000000e+00
      vertex 1.111140466e-02 1.662939225e-02 -5.196152423e-02
    endloop
  endfacet
  facet normal -5.160460605e-01 -6.958075648e-01 4.995480920e-01
    outer loop
      vertex 1.111140466e-02 1.662939225e-02 -5.196152423e-02
      vertex 3.171966421e-02 3.865052267e-02 0.000000000e+00
      vertex 2.777851165e-02 4.157348062e-02 0.000000000e+00
    endloop
  endfacet
  facet normal -4.453600900e-01 -7.430384203e-01 4.995480920e-01
    outer loop
      vertex 1.111140466e-02 1.662939225e-02 -5.196152423e-02
      vertex 2.777851165e-02 4.157348062e-02 0.000000000e+00
      vertex 9.427934737e-03 1.763842529e-02 -5.196152423e-02
    endloop
  endfacet
  facet normal -4.453600900e-01 -7.430384203e-01 4.995480920e-01
    outer loop
      vertex 9.427934737e-03 1.763842529e-02 -5.196152423e-02
      vertex 2.777851165e-02 4.157348062e-02 0.000000000e+00
      vertex 2.356983684e-02 4.409606322e-02 0.000000000e+00
    endloop
  endfacet
  facet normal -3.703850583e-01 -7.831134096e-01 4.995480920e-01
    outer loop
      vertex 9.427934737e-03 1.763842529e-02 -5.196152423e-02
      vertex 2.356983684e-02 4.409606322e-02 0.000000000e+00
      vertex 7.653668647e-03 1.847759065e-02 -5.196152423e-02
    endloop
  endfacet
  facet normal -3.703850583e-01 -7.831134096e-01 4.995480920e-01
    outer loop
      vertex 7.653668647e-03 1.847759065e-02 -5.196152423e-02
      vertex 2.356983684e-02 4.409606322e-02 0.000000000e+00
      vertex 1.913417162e-02 4.619397663e-02 0.000000000e+00
    endloop
  endfacet
  facet normal -2.918430160e-01 -8.156465888e-01 4.995480920e-01
    outer loop
      vertex 7.653668647e-03 1.847759065e-02 -5.196152423e-02
      vertex 1.913417162e-02 4.619397663e-02 0.000000000e+00
      vertex 5.805693545e-03 1.913880671e-02 -5.196152423e-02
    endloop
  endfacet
  facet normal -2.918430160e-01 -8.156465888e-01 4.995480920e-01
    outer loop
      vertex 5.805693545e-03 1.913880671e-02 -5.196152423e-02
      vertex 1.913417162e-02 4.619397663e-02 0.000000000e+00
      vertex 1.451423386e-02 4.784701679e-02 0.000000000e+00
    endloop
  endfacet
  facet normal -2.104903660e-01 -8.403246454e-01 4.995480920e-01
    outer loop
      vertex 5.805693545e-03 1.913880671e-02 -5.196152423e-02
      vertex 1.451423386e-02 4.784701679e-02 0.000000000e+00
      vertex 3.901806440e-03 1.961570561e-02 -5.196152423e-02
    endloop
  endfacet
  facet normal -2.104903660e-01 -8.403246454e-01 4.995480920e-01
    outer loop
      vertex 3.901806440e-03 1.961570561e-02 -5.196152423e-02
      vertex 1.451423386e-02 4.784701679e-02 0.000000000e+00
      vertex 9.754516101e-03 4.903926402e-02 0.000000000e+00
    endloop
  endfacet
  facet normal -1.271105787e-01 -8.569099162e-01 4.995480920e-01
    outer loop
      vertex 3.901806440e-03 1.961570561e-02 -5.196152423e-02
      vertex 9.754516101e-03 4.903926402e-02 0.000000000e+00
      vertex 1.960342807e-03 1.990369453e-02 -5.196152423e-02
    endloop
  endfacet
  facet normal -1.271105787e-01 -8.569099162e-01 4.995480920e-01
    outer loop
      vertex 1.960342807e-03 1.990369453e-02 -5.196152423e-02
      vertex 9.754516101e-03 4.903926402e-02 0.000000000e+00
      vertex 4.900857016e-03 4.975923633e-02 0.000000000e+00
    endloop
  endfacet
  facet normal -4.250664697e-02 -8.652426762e-01 4.995480920e-01
    outer loop
      vertex 1.960342807e-03 1.990369453e-02 -5.196152423e-02
      vertex 4.900857016e-03 4.975923633e-02 0.000000000e+00
      vertex 1.224646799e-18 2.000000000e-02 -5.196152423e-02
    endloop
  endfacet
  facet normal -4.250664697e-02 -8.652426762e-01 4.995480920e-01
    outer loop
      vertex 1.224646799e-18 2.000000000e-02 -5.196152423e-02
      vertex 4.900857016e-03 4.975923633e-02 0.000000000e+00
      vertex 3.061616998e-18 5.000000000e-02 0.000000000e+00
    endloop
  endfacet
  facet normal 4.250664697e-02 -8.652426762e-01 4.995480920e-01
    outer loop
      vertex 1.224646799e-18 2.000000000e-02 -5.196152423e-02
      vertex 3.061616998e-18 5.000000000e-02 0.000000000e+00
      vertex -1.960342807e-03 1.990369453e-02 -5.196152423e-02
    endloop
  endfacet
  facet normal 4.250664697e-02 -8.652426762e-01 4.995480920e-01
    outer loop
      vertex -1.960342807e-03 1.990369453e-02 -5.196152423e-02
      vertex 3.061616998e-18 5.000000000e-02 0.000000000e+00
      vertex -4.900857016e-03 4.975923633e-02 0.000000000e+00
    endloop
  endfacet
  facet normal 1.271105787e-01 -8.569099162e-01 4.995480920e-01
    outer loop
      vertex -1.960342807e-03 1.990369453e-02 -5.196152423e-02
      vertex -4.900857016e-03 4.975923633e-02 0.000000000e+00
      vertex -3.901806440e-03 1.961570561e-02 -5.196152423e-02
    endloop
  endfacet
  facet normal 1.271105787e-01 -8.569099162e-01 4.995480920e-01
    outer loop
      vertex -3.901806440e-03 1.961570561e-02 -5.196152423e-02
      vertex -4.900857016e-03 4.975923633e-02 0.000000000e+00
      vertex -9.754516101e-03 4.903926402e-02 0.000000000e+00
    endloop
  endfacet
  facet normal 2.104903660e-01 -8.403246454e-01 4.995480920e-01
    outer loop
      vertex -3.901806440e-03 1.961570561e-02 -5.196152423e-02
      vertex -9.754516101e-03 4.903926402e-02 0.000000000e+00
      vertex -5.805693545e-03 1.913880671e-02 -5.196152423e-02
    endloop
  endfacet
  facet normal 2.104903660e-01 -8.403246454e-01 4.995480920e-01
    outer loop
      vertex -5.805693545e-03 1.913880671e-02 -5.196152423e-02
      vertex -9.754516101e-03 4.903926402e-02 0.000000000e+00
      vertex -1.451423386e-02 4.784701679e-02 0.000000000e+00
    endloop
  endfacet
  facet normal 2.918430160e-01 -8.156465888e-01 4.995480920e-01
    outer loop
      vertex -5.805693545e-03 1.913880671e-02 -5.196152423e-02
      vertex -1.451423386e-02 4.784701679e-02 0.000000000e+00
      vertex -7.653668647e-03 1.847759065e-02 -5.196152423e-02
    endloop
  endfacet
  facet normal 2.918430160e-01 -8.156465888e-01 4.995480920e-01
    outer loop
      vertex -7.653668647e-03 1.847759065e-02 -5.196152423e-02
      vertex -1.451423386e-02 4.784701679e-02 0.000000000e+00
      vertex -1.913417162e-02 4.619397663e-02 0.000000000e+00
    endloop
  endfacet
  facet normal 3.703850583e-01 -7.831134096e-01 4.995480920e-01
    outer loop
      vertex -7.653668647e-03 1.847759065e-02 -5.196152423e-02
      vertex -1.913417162e-02 4.619397663e-02 0.000000000e+00
      vertex -9.427934737e-03 1.763842529e-02 -5.196152423e-02
    endloop
  endfacet
  facet normal 3.703850583e-01 -7.831134096e-01 4.995480920e-01
    outer loop
      vertex -9.427934737e-03 1.763842529e-02 -5.196152423e-02
      vertex -1.913417162e-02 4.619397663e-02 0.000000000e+00
      vertex -2.356983684e-02 4.409606322e-02 0.000000000e+00
    endloop
  endfacet
  facet normal 4.453600900e-01 -7.430384203e-01 4.995480920e-01
    outer loop
      vertex -9.427934737e-03 1.763842529e-02 -5.196152423e-02
      vertex -2.356983684e-02 4.409606322e-02 0.000000000e+00
      vertex -1.111140466e-02 1.662939225e-02 -5.196152423e-02
    endloop
  endfacet
  facet normal 4.453600900e-01 -7.430384203e-01 4.995480920e-01
    outer loop
      vertex -1.111140466e-02 1.662939225e-02 -5.196152423e-02
      vertex -2.356983684e-02 4.409606322e-02 0.000000000e+00
      vertex -2.777851165e-02 4.157348062e-02 0.000000000e+00
    endloop
  endfacet
  facet normal 5.160460605e-01 -6.958075648e-01 4.995480920e-01
    outer loop
      vertex -1.111140466e-02 1.662939225e-02 -5.196152423e-02
      vertex -2.777851165e-02 4.157348062e-02 0.000000000e+00
      vertex -1.268786568e-02 1.546020907e-02 -5.196152423e-02
    endloop
  endfacet
  facet normal 5.160460605e-01 -6.958075648e-01 4.995480920e-01
    outer loop
      vertex -1.268786568e-02 1.546020907e-02 -5.196152423e-02
      vertex -2.777851165e-02 4.157348062e-02 0.000000000e+00
      vertex -3.171966421e-02 3.865052267e-02 0.000000000e+00
    endloop
  endfacet
  facet normal 5.817622254e-01 -6.418757020e-01 4.995480920e-01
    outer loop
      vertex -1.268786568e-02 1.546020907e-02 -5.196152423e-02
      vertex -3.171966421e-02 3.865052267e-02 0.000000000e+00
      vertex -1.414213562e-02 1.414213562e-02 -5.196152423e-02
    endloop
  endfacet
  facet normal 5.817622254e-01 -6.418757020e-01 4.995480920e-01
    outer loop
      vertex -1.414213562e-02 1.414213562e-02 -5.196152423e-02
      vertex -3.171966421e-02 3.865052267e-02 0.000000000e+00
      vertex -3.535533906e-02 3.535533906e-02 0.000000000e+00
    endloop
  endfacet
  facet normal 6.418757020e-01 -5.817622254e-01 4.995480920e-01
    outer loop
      vertex -1.414213562e-02 1.414213562e-02 -5.196152423e-02
      vertex -3.535533906e-02 3.535533906e-02 0.000000000e+00
      vertex -1.546020907e-02 1.268786568e-02 -5.196152423e-02
    endloop
  endfacet
  facet normal 6.418757020e-01 -5.817622254e-01 4.995480920e-01
    outer loop
      vertex -1.546020907e-02 1.268786568e-02 -5.196152423e-02
      vertex -3.535533906e-02 3.535533906e-02 0.000000000e+00
      vertex -3.865052267e-02 3.171966421e-02 0.000000000e+00
    endloop
  endfacet
  facet normal 6.958075648e-01 -5.160460605e-01 4.995480920e-01
    outer loop
      vertex -1.546020907e-02 1.268786568e-02 -5.196152423e-02
      vertex -3.865052267e-02 3.171966421e-02 0.000000000e+00
      vertex -1.662939225e-02 1.111140466e-02 -5.196152423e-02
    endloop
  endfacet
  facet normal 6.958075648e-01 -5.160460605e-01 4.995480920e-01
    outer loop
      vertex -1.662939225e-02 1.111140466e-02 -5.196152423e-02
      vertex -3.865052267e-02 3.171966421e-02 0.000000000e+00
      vertex -4.157348062e-02 2.777851165e-02 0.000000000e+00
    endloop
  endfacet
  facet normal 7.430384203e-01 -4.453600900e-01 4.995480920e-01
    outer loop
      vertex -1.662939225e-02 1.111140466e-02 -5.196152423e-02
      vertex -4.157348062e-02 2.777851165e-02 0.000000000e+00
      vertex -1.763842529e-02 9.427934737e-03 -5.196152423e-02
    endloop
  endfacet
  facet normal 7.430384203e-01 -4.453600900e-01 4.995480920e-01
    outer loop
      vertex -1.763842529e-02 9.427934737e-03 -5.196152423e-02
      vertex -4.157348062e-02 2.777851165e-02 0.000000000e+00
      vertex -4.409606322e-02 2.356983684e-02 0.000000000e+00
    endloop
  endfacet
  facet normal 7.831134096e-01 -3.703850583e-01 4.995480920e-01
    outer loop
      vertex -1.763842529e-02 9.427934737e-03 -5.196152423e-02
      vertex -4.409606322e-02 2.356983684e-02 0.000000000e+00
      vertex -1.847759065e-02 7.653668647e-03 -5.196152423e-02
    endloop
  endfacet
  facet normal 7.831134096e-01 -3.703850583e-01 4.995480920e-01
    outer loop
      vertex -1.847759065e-02 7.653668647e-03 -5.196152423e-02
      vertex -4.409606322e-02 2.356983684e-02 0.000000000e+00
      vertex -4.619397663e-02 1.913417162e-02 0.000000000e+00
    endloop
  endfacet
  facet normal 8.156465888e-01 -2.918430160e-01 4.995480920e-01
    outer loop
      vertex -1.847759065e-02 7.653668647e-03 -5.196152423e-02
      vertex -4.619397663e-02 1.913417162e-02 0.000000000e+00
      vertex -1.913880671e-02 5.805693545e-03 -5.196152423e-02
    endloop
  endfacet
  facet normal 8.156465888e-01 -2.918430160e-01 4.995480920e-01
    outer loop
      vertex -1.913880671e-02 5.805693545e-03 -5.196152423e-02
      vertex -4.619397663e-02 1.913417162e-02 0.000000000e+00
      vertex -4.784701679e-02 1.451423386e-02 0.000000000e+00
    endloop
  endfacet
  facet normal 8.403246454e-01 -2.104903660e-01 4.995480920e-01
    outer loop
      vertex -1.913880671e-02 5.805693545e-03 -5.196152423e-02
      vertex -4.784701679e-02 1.451423386e-02 0.000000000e+00
      vertex -1.961570561e-02 3.901806440e-03 -5.196152423e-02
    endloop
  endfacet
  facet normal 8.403246454e-01 -2.104903660e-01 4.995480920e-01
    outer loop
      vertex -1.961570561e-02 3.901806440e-03 -5.196152423e-02
      vertex -4.784701679e-02 1.451423386e-02 0.000000000e+00
      vertex -4.903926402e-02 9.754516101e-03 0.000000000e+00
    endloop
  endfacet
  facet normal 8.569099162e-01 -1.271105787e-01 4.995480920e-01
    outer loop
      vertex -1.961570561e-02 3.901806440e-03 -5.196152423e-02
      vertex -4.903926402e-02 9.754516101e-03 0.000000000e+00
      vertex -1.990369453e-02 1.960342807e-03 -5.196152423e-02
    endloop
  endfacet
  facet normal 8.569099162e-01 -1.271105787e-01 4.995480920e-01
    outer loop
      vertex -1.990369453e-02 1.960342807e-03 -5.196152423e-02
      vertex -4.903926402e-02 9.754516101e-03 0.000000000e+00
      vertex -4.975923633e-02 4.900857016e-03 0.000000000e+00
    endloop
  endfacet
  facet normal 8.652426762e-01 -4.250664697e-02 4.995480920e-01
    outer loop
      vertex -1.990369453e-02 1.960342807e-03 -5.196152423e-02
      vertex -4.975923633e-02 4.900857016e-03 0.000000000e+00
      vertex -2.000000000e-02 2.449293598e-18 -5.196152423e-02
    endloop
  endfacet
  facet normal 8.652426762e-01 -4.250664697e-02 4.995480920e-01
    outer loop
      vertex -2.000000000e-02 2.449293598e-18 -5.196152423e-02
      vertex -4.975923633e-02 4.900857016e-03 0.000000000e+00
      vertex -5.000000000e-02 6.123233996e-18 0.000000000e+00
    endloop
  endfacet
  facet normal 8.652426762e-01 4.250664697e-02 4.995480920e-01
    outer loop
      vertex -2.000000000e-02 2.449293598e-18 -5.196152423e-02
      vertex -5.000000000e-02 6.123233996e-18 0.000000000e+00
      vertex -1.990369453e-02 -1.960342807e-03 -5.196152423e-02
    endloop
  endfacet
  facet normal 8.652426762e-01 4.250664697e-02 4.995480920e-01
    outer loop
      vertex -1.990369453e-02 -1.960342807e-03 -5.196152423e-02
      vertex -5.000000000e-02 6.123233996e-18 0.000000000e+00
      vertex -4.975923633e-02 -4.900857016e-03 0.000000000e+00
    endloop
  endfacet
  facet normal 8.569099162e-01 1.271105787e-01 4.995480920e-01
    outer loop
      vertex -1.990369453e-02 -1.960342807e-03 -5.196152423e-02
      vertex -4.975923633e-02 -4.900857016e-03 0.000000000e+00
      vertex -1.961570561e-02 -3.901806440e-03 -5.196152423e-02
    endloop
  endfacet
  facet normal 8.569099162e-01 1.271105787e-01 4.995480920e-01
    outer loop
      vertex -1.961570561e-02 -3.901806440e-03 -5.196152423e-02
      vertex -4.975923633e-02 -4.900857016e-03 0.000000000e+00
      vertex -4.903926402e-02 -9.754516101e-03 0.000000000e+00
    endloop
  endfacet
  facet normal 8.403246454e-01 2.104903660e-01 4.995480920e-01
    outer loop
      vertex -1.961570561e-02 -3.901806440e-03 -5.196152423e-02
      vertex -4.903926402e-02 -9.754516101e-03 0.000000000e+00
      vertex -1.913880671e-02 -5.805693545e-03 -5.196152423e-02
    endloop
  endfacet
  facet normal 8.403246454e-01 2.104903660e-01 4.995480920e-01
    outer loop
      vertex -1.913880671e-02 -5.805693545e-03 -5.196152423e-02
      vertex -4.903926402e-02 -9.754516101e-03 0.000000000e+00
      vertex -4.784701679e-02 -1.451423386e-02 0.000000000e+00
    endloop
  endfacet
  facet normal 8.156465888e-01 2.918430160e-01 4.995480920e-01
    outer loop
      vertex -1.913880671e-02 -5.805693545e-03 -5.196152423e-02
      vertex -4.784701679e-02 -1.451423386e-02 0.000000000e+00
      vertex -1.847759065e-02 -7.653668647e-03 -5.196152423e-02
    endloop
  endfacet
  facet normal 8.156465888e-01 2.918430160e-01 4.995480920e-01
    outer loop
      vertex -1.847759065e-02 -7.653668647e-03 -5.196152423e-02
      vertex -4.784701679e-02 -1.451423386e-02 0.000000000e+00
      vertex -4.619397663e-02 -1.913417162e-02 0.000000000e+00
    endloop
  endfacet
  facet normal 7.831134096e-01 3.703850583e-01 4.995480920e-01
    outer loop
      vertex -1.847759065e-02 -7.653668647e-03 -5.196152423e-02
      vertex -4.619397663e-02 -1.913417162e-02 0.000000000e+00
      vertex -1.763842529e-02 -9.427934737e-03 -5.196152423e-02
    endloop
  endfacet
  facet normal 7.831134096e-01 3.703850583e-01 4.995480920e-01
    outer loop
      vertex -1.763842529e-02 -9.427934737e-03 -5.196152423e-02
      vertex -4.619397663e-02 -1.913417162e-02 0.000000000e+00
      vertex -4.409606322e-02 -2.356983684e-02 0.000000000e+00
    endloop
  endfacet
  facet normal 7.430384203e-01 4.453600900e-01 4.995480920e-01
    outer loop
      vertex -1.763842529e-02 -9.427934737e-03 -5.196152423e-02
      vertex -4.409606322e-02 -2.356983684e-02 0.000000000e+00
      vertex -1.662939225e-02 -1.111140466e-02 -5.196152423e-02
    endloop
  endfacet
  facet normal 7.430384203e-01 4.453600900e-01 4.995480920e-01
    outer loop
      vertex -1.662939225e-02 -1.111140466e-02 -5.196152423e-02
      vertex -4.409606322e-02 -2.356983684e-02 0.000000000e+00
      vertex -4.157348062e-02 -2.777851165e-02 0.000000000e+00
    endloop
  endfacet
  facet normal 6.958075648e-01 5.160460605e-01 4.995480920e-01
    outer loop
      vertex -1.662939225e-02 -1.111140466e-02 -5.196152423e-02
      vertex -4.157348062e-02 -2.777851165e-02 0.000000000e+00
      vertex -1.546020907e-02 -1.268786568e-02 -5.196152423e-02
    endloop
  endfacet
  facet normal 6.958075648e-01 5.160460605e-01 4.995480920e-01
    outer loop
      vertex -1.546020907e-02 -1.268786568e-02 -5.196152423e-02
      vertex -4.157348062e-02 -2.777851165e-02 0.000000000e+00
      vertex -3.865052267e-02 -3.171966421e-02 0.000000000e+00
    endloop
  endfacet
  facet normal 6.418757020e-01 5.817622254e-01 4.995480920e-01
    outer loop
      vertex -1.546020907e-02 -1.268786568e-02 -5.196152423e-02
      vertex -3.865052267e-02 -3.171966421e-02 0.000000000e+00
      vertex -1.414213562e-02 -1.414213562e-02 -5.196152423e-02
    endloop
  endfacet
  facet normal 6.418757020e-01 5.817622254e-01 4.995480920e-01
    outer loop
      vertex -1.414213562e-02 -1.414213562e-02 -5.196152423e-02
      vertex -3.865052267e-02 -3.171966421e-02 0.000000000e+00
      vertex -3.535533906e-02 -3.535533906e-02 0.000000000e+00
    endloop
  endfacet
  facet normal 5.817622254e-01 6.418757020e-01 4.995480920e-01
    outer loop
      vertex -1.414213562e-02 -1.414213562e-02 -5.196152423e-02
      vertex -3.535533906e-02 -3.535533906e-02 0.000000000e+00
      vertex -1.268786568e-02 -1.546020907e-02 -5.196152423e-02
    endloop
  endfacet
  facet normal 5.817622254e-01 6.418757020e-01 4.995480920e-01
    outer loop
      vertex -1.268786568e-02 -1.546020907e-02 -5.196152423e-02
      vertex -3.535533906e-02 -3.535533906e-02 0.000000000e+00
      vertex -3.171966421e-02 -3.865052267e-02 0.000000000e+00
    endloop
  endfacet
  facet normal 5.160460605e-01 6.958075648e-01 4.995480920e-01
    outer loop
      vertex -1.268786568e-02 -1.546020907e-02 -5.196152423e-02
      vertex -3.171966421e-02 -3.865052267e-02 0.000000000e+00
      vertex -1.111140466e-02 -1.662939225e-02 -5.196152423e-02
    endloop
  endfacet
  facet normal 5.160460605e-01 6.958075648e-01 4.995480920e-01
    outer loop
      vertex -1.111140466e-02 -1.662939225e-02 -5.196152423e-02
      vertex -3.171966421e-02 -3.865052267e-02 0.000000000e+00
      vertex -2.777851165e-02 -4.157348062e-02 0.000000000e+00
    endloop
  endfacet
  facet normal 4.453600900e-01 7.430384203e-01 4.995480920e-01
    outer loop
      vertex -1.111140466e-02 -1.662939225e-02 -5.196152423e-02
      vertex -2.777851165e-02 -4.157348062e-02 0.000000000e+00
      vertex -9.427934737e-03 -1.763842529e-02 -5.196152423e-02
    endloop
  endfacet
  facet normal 4.453600900e-01 7.430384203e-01 4.995480920e-01
    outer loop
      vertex -9.427934737e-03 -1.763842529e-02 -5.196152423e-02
      vertex -2.777851165e-02 -4.157348062e-02 0.000000000e+00
      vertex -2.356983684e-02 -4.409606322e-02 0.000000000e+00
    endloop
  endfacet
  facet normal 3.703850583e-01 7.831134096e-01 4.995480920e-01
    outer loop
      vertex -9.427934737e-03 -1.763842529e-02 -5.196152423e-02
      vertex -2.356983684e-02 -4.409606322e-02 0.000000000e+00
      vertex -7.653668647e-03 -1.847759065e-02 -5.196152423e-02
    endloop
  endfacet
  facet normal 3.703850583e-01 7.831134096e-01 4.995480920e-01
    outer loop
      vertex -7.653668647e-03 -1.847759065e-02 -5.196152423e-02
      vertex -2.356983684e-02 -4.409606322e-02 0.000000000e+00
      vertex -1.913417162e-02 -4.619397663e-02 0.000000000e+00
    endloop
  endfacet
  facet normal 2.918430160e-01 8.156465888e-01 4.995480920e-01
    outer loop
      vertex -7.653668647e-03 -1.847759065e-02 -5.196152423e-02
      vertex -1.913417162e-02 -4.619397663e-02 0.000000000e+00
      vertex -5.805693545e-03 -1.913880671e-02 -5.196152423e-02
    endloop
  endfacet
  facet normal 2.918430160e-01 8.156465888e-01 4.995480920e-01
    outer loop
      vertex -5.805693545e-03 -1.913880671e-02 -5.196152423e-02
      vertex -1.913417162e-02 -4.619397663e-02 0.000000000e+00
      vertex -1.451423386e-02 -4.784701679e-02 0.000000000e+00
    endloop
  endfacet
  facet normal 2.104903660e-01 8.403246454e-01 4.995480920e-01
    outer loop
      vertex -5.805693545e-03 -1.913880671e-02 -5.196152423e-02
      vertex -1.451423386e-02 -4.784701679e-02 0.000000000e+00
      vertex -3.901806440e-03 -1.961570561e-02 -5.196152423e-02
    endloop
  endfacet
  facet normal 2.104903660e-01 8.403246454e-01 4.995480920e-01
    outer loop
      vertex -3.901806440e-03 -1.961570561e-02 -5.196152423e-02
      vertex -1.451423386e-02 -4.784701679e-02 0.000000000e+00
      vertex -9.754516101e-03 -4.903926402e-02 0.000000000e+00
    endloop
  endfacet
  facet normal 1.271105787e-01 8.569099162e-01 4.995480920e-01
    outer loop
      vertex -3.901806440e-03 -1.961570561e-02 -5.196152423e-02
      vertex -9.754516101e-03 -4.903926402e-02 0.000000000e+00
      vertex -1.960342807e-03 -1.990369453e-02 -5.196152423e-02
    endloop
  endfacet
  facet normal 1.271105787e-01 8.569099162e-01 4.995480920e-01
    outer loop
      vertex -1.960342807e-03 -1.990369453e-02 -5.196152423e-02
      vertex -9.754516101e-03 -4.903926402e-02 0.000000000e+00
      vertex -4.900857016e-03 -4.975923633e-02 0.000000000e+00
    endloop
  endfacet
  facet normal 4.250664697e-02 8.652426762e-01 4.995480920e-01
    outer loop
      vertex -1.960342807e-03 -1.990369453e-02 -5.196152423e-02
      vertex -4.900857016e-03 -4.975923633e-02 0.000000000e+00
      vertex -3.673940397e-18 -2.000000000e-02 -5.196152423e-02
    endloop
  endfacet
  facet normal 4.250664697e-02 8.652426762e-01 4.995480920e-01
    outer loop
      vertex -3.673940397e-18 -2.000000000e-02 -5.196152423e-02
      vertex -4.900857016e-03 -4.975923633e-02 0.000000000e+00
      vertex -9.184850994e-18 -5.000000000e-02 0.000000000e+00
    endloop
  endfacet
  facet normal -4.250664697e-02 8.652426762e-01 4.995480920e-01
    outer loop
      vertex -3.673940397e-18 -2.000000000e-02 -5.196152423e-02
      vertex -9.184850994e-18 -5.000000000e-02 0.000000000e+00
      vertex 1.960342807e-03 -1.990369453e-02 -5.196152423e-02
    endloop
  endfacet
  facet normal -4.250664697e-02 8.652426762e-01 4.995480920e-01
    outer loop
      vertex 1.960342807e-03 -1.990369453e-02 -5.196152423e-02
      vertex -9.184850994e-18 -5.000000000e-02 0.000000000e+00
      vertex 4.900857016e-03 -4.975923633e-02 0.000000000e+00
    endloop
  endfacet
  facet normal -1.271105787e-01 8.569099162e-01 4.995480920e-01
    outer loop
      vertex 1.960342807e-03 -1.990369453e-02 -5.196152423e-02
      vertex 4.900857016e-03 -4.975923633e-02 0.000000000e+00
      vertex 3.901806440e-03 -1.961570561e-02 -5.196152423e-02
    endloop
  endfacet
  facet normal -1.271105787e-01 8.569099162e-01 4.995480920e-01
    outer loop
      vertex 3.901806440e-03 -1.961570561e-02 -5.196152423e-02
      vertex 4.900857016e-03 -4.975923633e-02 0.000000000e+00
      vertex 9.754516101e-03 -4.903926402e-02 0.000000000e+00
    endloop
  endfacet
  facet normal -2.104903660e-01 8.403246454e-01 4.995480920e-01
    outer loop
      vertex 3.901806440e-03 -1.961570561e-02 -5.196152423e-02
      vertex 9.754516101e-03 -4.903926402e-02 0.000000000e+00
      vertex 5.805693545e-03 -1.913880671e-02 -5.196152423e-02
    endloop
  endfacet
  facet normal -2.104903660e-01 8.403246454e-01 4.995480920e-01
    outer loop
      vertex 5.805693545e-03 -1.913880671e-02 -5.196152423e-02
      vertex 9.754516101e-03 -4.903926402e-02 0.000000000e+00
      vertex 1.451423386e-02 -4.784701679e-02 0.000000000e+00
    endloop
  endfacet
  facet normal -2.918430160e-01 8.156465888e-01 4.995480920e-01
    outer loop
      vertex 5.805693545e-03 -1.913880671e-02 -5.196152423e-02
      vertex 1.451423386e-02 -4.784701679e-02 0.000000000e+00
      vertex 7.653668647e-03 -1.847759065e-02 -5.196152423e-02
    endloop
  endfacet
  facet normal -2.918430160e-01 8.156465888e-01 4.995480920e-01
    outer loop
      vertex 7.653668647e-03 -1.847759065e-02 -5.196152423e-02
      vertex 1.451423386e-02 -4.784701679e-02 0.000000000e+00
      vertex 1.913417162e-02 -4.619397663e-02 0.000000000e+00
    endloop
  endfacet
  facet normal -3.703850583e-01 7.831134096e-01 4.995480920e-01
    outer loop
      vertex 7.653668647e-03 -1.847759065e-02 -5.196152423e-02
      vertex 1.913417162e-02 -4.619397663e-02 0.000000000e+00
      vertex 9.427934737e-03 -1.763842529e-02 -5.196152423e-02
    endloop
  endfacet
  facet normal -3.703850583e-01 7.831134096e-01 4.995480920e-01
    outer loop
      vertex 9.427934737e-03 -1.763842529e-02 -5.196152423e-02
      vertex 1.913417162e-02 -4.619397663e-02 0.000000000e+00
      vertex 2.356983684e-02 -4.409606322e-02 0.000000000e+00
    endloop
  endfacet
  facet normal -4.453600900e-01 7.430384203e-01 4.995480920e-01
    outer loop
      vertex 9.427934737e-03 -1.763842529e-02 -5.196152423e-02
      vertex 2.356983684e-02 -4.409606322e-02 0.000000000e+00
      vertex 1.111140466e-02 -1.662939225e-02 -5.196152423e-02
    endloop
  endfacet
  facet normal -4.453600900e-01 7.430384203e-01 4.995480920e-01
    outer loop
      vertex 1.111140466e-02 -1.662939225e-02 -5.196152423e-02
      vertex 2.356983684e-02 -4.409606322e-02 0.000000000e+00
      vertex 2.777851165e-02 -4.157348062e-02 0.000000000e+00
    endloop
  endfacet
  facet normal -5.160460605e-01 6.958075648e-01 4.995480920e-01
    outer loop
      vertex 1.111140466e-02 -1.662939225e-02 -5.196152423e-02
      vertex 2.777851165e-02 -4.157348062e-02 0.000000000e+00
      vertex 1.268786568e-02 -1.546020907e-02 -5.196152423e-02
    endloop
  endfacet
  facet normal -5.160460605e-01 6.958075648e-01 4.995480920e-01
    outer loop
      vertex 1.268786568e-02 -1.546020907e-02 -5.196152423e-02
      vertex 2.777851165e-02 -4.157348062e-02 0.000000000e+00
      vertex 3.171966421e-02 -3.865052267e-02 0.000000000e+00
    endloop
  endfacet
  facet normal -5.817622254e-01 6.418757020e-01 4.995480920e-01
    outer loop
      vertex 1.268786568e-02 -1.546020907e-02 -5.196152423e-02
      vertex 3.171966421e-02 -3.865052267e-02 0.000000000e+00
      vertex 1.414213562e-02 -1.414213562e-02 -5.196152423e-02
    endloop
  endfacet
  facet normal -5.817622254e-01 6.418757020e-01 4.995480920e-01
    outer loop
      vertex 1.414213562e-02 -1.414213562e-02 -5.196152423e-02
      vertex 3.171966421e-02 -3.865052267e-02 0.000000000e+00
      vertex 3.535533906e-02 -3.535533906e-02 0.000000000e+00
    endloop
  endfacet
  facet normal -6.418757020e-01 5.817622254e-01 4.995480920e-01
    outer loop
      vertex 1.414213562e-02 -1.414213562e-02 -5.196152423e-02
      vertex 3.535533906e-02 -3.535533906e-02 0.000000000e+00
      vertex 1.546020907e-02 -1.268786568e-02 -5.196152423e-02
    endloop
  endfacet
  facet normal -6.418757020e-01 5.817622254e-01 4.995480920e-01
    outer loop
      vertex 1.546020907e-02 -1.268786568e-02 -5.196152423e-02
      vertex 3.535533906e-02 -3.535533906e-02 0.000000000e+00
      vertex 3.865052267e-02 -3.171966421e-02 0.000000000e+00
    endloop
  endfacet
  facet normal -6.958075648e-01 5.160460605e-01 4.995480920e-01
    outer loop
      vertex 1.546020907e-02 -1.268786568e-02 -5.196152423e-02
      vertex 3.865052267e-02 -3.171966421e-02 0.000000000e+00
      vertex 1.662939225e-02 -1.111140466e-02 -5.196152423e-02
    endloop
  endfacet
  facet normal -6.958075648e-01 5.160460605e-01 4.995480920e-01
    outer loop
      vertex 1.662939225e-02 -1.111140466e-02 -5.196152423e-02
      vertex 3.865052267e-02 -3.171966421e-02 0.000000000e+00
      vertex 4.157348062e-02 -2.777851165e-02 0.000000000e+00
    endloop
  endfacet
  facet normal -7.430384203e-01 4.453600900e-01 4.995480920e-01
    outer loop
      vertex 1.662939225e-02 -1.111140466e-02 -5.196152423e-02
      vertex 4.157348062e-02 -2.777851165e-02 0.000000000e+00
      vertex 1.763842529e-02 -9.427934737e-03 -5.196152423e-02
    endloop
  endfacet
  facet normal -7.430384203e-01 4.453600900e-01 4.995480920e-01
    outer loop
      vertex 1.763842529e-02 -9.427934737e-03 -5.196152423e-02
      vertex 4.157348062e-02 -2.777851165e-02 0.000000000e+00
      vertex 4.409606322e-02 -2.356983684e-02 0.000000000e+00
    endloop
  endfacet
  facet normal -7.831134096e-01 3.703850583e-01 4.995480920e-01
    outer loop
      vertex 1.763842529e-02 -9.427934737e-03 -5.196152423e-02
      vertex 4.409606322e-02 -2.356983684e-02 0.000000000e+00
      vertex 1.847759065e-02 -7.653668647e-03 -5.196152423e-02
    endloop
  endfacet
  facet normal -7.831134096e-01 3.703850583e-01 4.995480920e-01
    outer loop
      vertex 1.847759065e-02 -7.653668647e-03 -5.196152423e-02
      vertex 4.409606322e-02 -2.356983684e-02 0.000000000e+00
      vertex 4.619397663e-02 -1.913417162e-02 0.000000000e+00
    endloop
  endfacet
  facet normal -8.156465888e-01 2.918430160e-01 4.995480920e-01
    outer loop
      vertex 1.847759065e-02 -7.653668647e-03 -5.196152423e-02
      vertex 4.619397663e-02 -1.913417162e-02 0.000000000e+00
      vertex 1.913880671e-02 -5.805693545e-03 -5.196152423e-02
    endloop
  endfacet
  facet normal -8.156465888e-01 2.918430160e-01 4.995480920e-01
    outer loop
      vertex 1.913880671e-02 -5.805693545e-03 -5.196152423e-02
      vertex 4.619397663e-02 -1.913417162e-02 0.000000000e+00
      vertex 4.784701679e-02 -1.451423386e-02 0.000000000e+00
    endloop
  endfacet
  facet normal -8.403246454e-01 2.104903660e-01 4.995480920e-01
    outer loop
      vertex 1.913880671e-02 -5.805693545e-03 -5.196152423e-02
      vertex 4.784701679e-02 -1.451423386e-02 0.000000000e+00
      vertex 1.961570561e-02 -3.901806440e-03 -5.196152423e-02
    endloop
  endfacet
  facet normal -8.403246454e-01 2.104903660e-01 4.995480920e-01
    outer loop
      vertex 1.961570561e-02 -3.901806440e-03 -5.196152423e-02
      vertex 4.784701679e-02 -1.451423386e-02 0.000000000e+00
      vertex 4.903926402e-02 -9.754516101e-03 0.000000000e+00
    endloop
  endfacet
  facet normal -8.569099162e-01 1.271105787e-01 4.995480920e-01
    outer loop
      vertex 1.961570561e-02 -3.901806440e-03 -5.196152423e-02
      vertex 4.903926402e-02 -9.754516101e-03 0.000000000e+00
      vertex 1.990369453e-02 -1.960342807e-03 -5.196152423e-02
    endloop
  endfacet
  facet normal -8.569099162e-01 1.271105787e-01 4.995480920e-01
    outer loop
      vertex 1.990369453e-02 -1.960342807e-03 -5.196152423e-02
      vertex 4.903926402e-02 -9.754516101e-03 0.000000000e+00
      vertex 4.975923633e-02 -4.900857016e-03 0.000000000e+00
    endloop
  endfacet
  facet normal -8.652426762e-01 4.250664697e-02 4.995480920e-01
    outer loop
      vertex 1.990369453e-02 -1.960342807e-03 -5.196152423e-02
      vertex 4.975923633e-02 -4.900857016e-03 0.000000000e+00
      vertex 2.000000000e-02 0.000000000e+00 -5.196152423e-02
    endloop
  endfacet
  facet normal -8.652426762e-01 4.250664697e-02 4.995480920e-01
    outer loop
      vertex 2.000000000e-02 0.000000000e+00 -5.196152423e-02
      vertex 4.975923633e-02 -4.900857016e-03 0.000000000e+00
      vertex 5.000000000e-02 0.000000000e+00 0.000000000e+00
    endloop
  endfacet
  facet normal -9.987954562e-01 -4.906767433e-02 0.000000000e+00
    outer loop
      vertex 5.000000000e-02 0.000000000e+00 0.000000000e+00
      vertex 5.000000000e-02 0.000000000e+00 2.000000000e-01
      vertex 4.975923633e-02 4.900857016e-03 0.000000000e+00
    endloop
  endfacet
  facet normal -9.987954562e-01 -4.906767433e-02 0.000000000e+00
    outer loop
      vertex 4.975923633e-02 4.900857016e-03 0.000000000e+00
      vertex 5.000000000e-02 0.000000000e+00 2.000000000e-01
      vertex 4.975923633e-02 4.900857016e-03 2.000000000e-01
    endloop
  endfacet
  facet normal -9.891765100e-01 -1.467304745e-01 0.000000000e+00
    outer loop
      vertex 4.975923633e-02 4.900857016e-03 0.000000000e+00
      vertex 4.975923633e-02 4.900857016e-03 2.000000000e-01
      vertex 4.903926402e-02 9.754516101e-03 0.000000000e+00
    endloop
  endfacet
  facet normal -9.891765100e-01 -1.467304745e-01 0.000000000e+00
    outer loop
      vertex 4.903926402e-02 9.754516101e-03 0.000000000e+00
      vertex 4.975923633e-02 4.900857016e-03 2.000000000e-01
      vertex 4.903926402e-02 9.754516101e-03 2.000000000e-01
    endloop
  endfacet
  facet normal -9.700312532e-01 -2.429801799e-01 0.000000000e+00
    outer loop
      vertex 4.903926402e-02 9.754516101e-03 0.000000000e+00
      vertex 4.903926402e-02 9.754516101e-03 2.000000000e-01
      vertex 4.784701679e-02 1.451423386e-02 0.000000000e+00
    endloop
  endfacet
  facet normal -9.700312532e-01 -2.429801799e-01 0.000000000e+00
    outer loop
      vertex 4.784701679e-02 1.451423386e-02 0.000000000e+00
      vertex 4.903926402e-02 9.754516101e-03 2.000000000e-01
      vertex 4.784701679e-02 1.451423386e-02 2.000000000e-01
    endloop
  endfacet
  facet normal -9.415440652e-01 -3.368898534e-01 0.000000000e+00
    outer loop
      vertex 4.784701679e-02 1.451423386e-02 0.000000000e+00
      vertex 4.784701679e-02 1.451423386e-02 2.000000000e-01
      vertex 4.619397663e-02 1.913417162e-02 0.000000000e+00
    endloop
  endfacet
  facet normal -9.415440652e-01 -3.368898534e-01 0.000000000e+00
    outer loop
      vertex 4.619397663e-02 1.913417162e-02 0.000000000e+00
      vertex 4.784701679e-02 1.451423386e-02 2.000000000e-01
      vertex 4.619397663e-02 1.913417162e-02 2.000000000e-01
    endloop
  endfacet
  facet normal -9.039892931e-01 -4.275550934e-01 0.000000000e+00
    outer loop
      vertex 4.619397663e-02 1.913417162e-02 0.000000000e+00
      vertex 4.619397663e-02 1.913417162e-02 2.000000000e-01
      vertex 4.409606322e-02 2.356983684e-02 0.000000000e+00
    endloop
  endfacet
  facet normal -9.039892931e-01 -4.275550934e-01 0.000000000e+00
    outer loop
      vertex 4.409606322e-02 2.356983684e-02 0.000000000e+00
      vertex 4.619397663e-02 1.913417162e-02 2.000000000e-01
      vertex 4.409606322e-02 2.356983684e-02 2.000000000e-01
    endloop
  endfacet
  facet normal -8.577286100e-01 -5.141027442e-01 0.000000000e+00
    outer loop
      vertex 4.409606322e-02 2.356983684e-02 0.000000000e+00
      vertex 4.409606322e-02 2.356983684e-02 2.000000000e-01
      vertex 4.157348062e-02 2.777851165e-02 0.000000000e+00
    endloop
  endfacet
  facet normal -8.577286100e-01 -5.141027442e-01 0.000000000e+00
    outer loop
      vertex 4.157348062e-02 2.777851165e-02 0.000000000e+00
      vertex 4.409606322e-02 2.356983684e-02 2.000000000e-01
      vertex 4.157348062e-02 2.777851165e-02 2.000000000e-01
    endloop
  endfacet
  facet normal -8.032075315e-01 -5.956993045e-01 0.000000000e+00
    outer loop
      vertex 4.157348062e-02 2.777851165e-02 0.000000000e+00
      vertex 4.157348062e-02 2.777851165e-02 2.000000000e-01
      vertex 3.865052267e-02 3.171966421e-02 0.000000000e+00
    endloop
  endfacet
  facet normal -8.032075315e-01 -5.956993045e-01 0.000000000e+00
    outer loop
      vertex 3.865052267e-02 3.171966421e-02 0.000000000e+00
      vertex 4.157348062e-02 2.777851165e-02 2.000000000e-01
      vertex 3.865052267e-02 3.171966421e-02 2.000000000e-01
    endloop
  endfacet
  facet normal -7.409511254e-01 -6.715589548e-01 0.000000000e+00
    outer loop
      vertex 3.865052267e-02 3.171966421e-02 0.000000000e+00
      vertex 3.865052267e-02 3.171966421e-02 2.000000000e-01
      vertex 3.535533906e-02 3.535533906e-02 0.000000000e+00
    endloop
  endfacet
  facet normal -7.409511254e-01 -6.715589548e-01 0.000000000e+00
    outer loop
      vertex 3.535533906e-02 3.535533906e-02 0.000000000e+00
      vertex 3.865052267e-02 3.171966421e-02 2.000000000e-01
      vertex 3.535533906e-02 3.535533906e-02 2.000000000e-01
    endloop
  endfacet
  facet normal -6.715589548e-01 -7.409511254e-01 0.000000000e+00
    outer loop
      vertex 3.535533906e-02 3.535533906e-02 0.000000000e+00
      vertex 3.535533906e-02 3.535533906e-02 2.000000000e-01
      vertex 3.171966421e-02 3.865052267e-02 0.000000000e+00
    endloop
  endfacet
  facet normal -6.715589548e-01 -7.409511254e-01 0.000000000e+00
    outer loop
      vertex 3.171966421e-02 3.865052267e-02 0.000000000e+00
      vertex 3.535533906e-02 3.535533906e-02 2.000000000e-01
      vertex 3.171966421e-02 3.865052267e-02 2.000000000e-01
    endloop
  endfacet
  facet normal -5.956993045e-01 -8.032075315e-01 0.000000000e+00
    outer loop
      vertex 3.171966421e-02 3.865052267e-02 0.000000000e+00
      vertex 3.171966421e-02 3.865052267e-02 2.000000000e-01
      vertex 2.777851165e-02 4.157348062e-02 0.000000000e+00
    endloop
  endfacet
  facet normal -5.956993045e-01 -8.032075315e-01 0.000000000e+00
    outer loop
      vertex 2.777851165e-02 4.157348062e-02 0.000000000e+00
      vertex 3.171966421e-02 3.865052267e-02 2.000000000e-01
      vertex 2.777851165e-02 4.157348062e-02 2.000000000e-01
    endloop
  endfacet
  facet normal -5.141027442e-01 -8.577286100e-01 0.000000000e+00
    outer loop
      vertex 2.777851165e-02 4.157348062e-02 0.000000000e+00
      vertex 2.777851165e-02 4.157348062e-02 2.000000000e-01
      vertex 2.356983684e-02 4.409606322e-02 0.000000000e+00
    endloop
  endfacet
  facet normal -5.141027442e-01 -8.577286100e-01 0.000000000e+00
    outer loop
      vertex 2.356983684e-02 4.409606322e-02 0.000000000e+00
      vertex 2.777851165e-02 4.157348062e-02 2.000000000e-01
      vertex 2.356983684e-02 4.409606322e-02 2.000000000e-01
    endloop
  endfacet
  facet normal -4.275550934e-01 -9.039892931e-01 0.000000000e+00
    outer loop
      vertex 2.356983684e-02 4.409606322e-02 0.000000000e+00
      vertex 2.356983684e-02 4.409606322e-02 2.000000000e-01
      vertex 1.913417162e-02 4.619397663e-02 0.000000000e+00
    endloop
  endfacet
  facet normal -4.275550934e-01 -9.039892931e-01 0.000000000e+00
    outer loop
      vertex 1.913417162e-02 4.619397663e-02 0.000000000e+00
      vertex 2.356983684e-02 4.409606322e-02 2.000000000e-01
      vertex 1.913417162e-02 4.619397663e-02 2.000000000e-01
    endloop
  endfacet
  facet normal -3.368898534e-01 -9.415440652e-01 0.000000000e+00
    outer loop
      vertex 1.913417162e-02 4.619397663e-02 0.000000000e+00
      vertex 1.913417162e-02 4.619397663e-02 2.000000000e-01
      vertex 1.451423386e-02 4.784701679e-02 0.000000000e+00
    endloop
  endfacet
  facet normal -3.368898534e-01 -9.415440652e-01 0.000000000e+00
    outer loop
      vertex 1.451423386e-02 4.784701679e-02 0.000000000e+00
      vertex 1.913417162e-02 4.619397663e-02 2.000000000e-01
      vertex 1.451423386e-02 4.784701679e-02 2.000000000e-01
    endloop
  endfacet
  facet normal -2.429801799e-01 -9.700312532e-01 0.000000000e+00
    outer loop
      vertex 1.451423386e-02 4.784701679e-02 0.000000000e+00
      vertex 1.451423386e-02 4.784701679e-02 2.000000000e-01
      vertex 9.754516101e-03 4.903926402e-02 0.000000000e+00
    endloop
  endfacet
  facet normal -2.429801799e-01 -9.700312532e-01 0.000000000e+00
    outer loop
      vertex 9.754516101e-03 4.903926402e-02 0.000000000e+00
      vertex 1.451423386e-02 4.784701679e-02 2.000000000e-01
      vertex 9.754516101e-03 4.903926402e-02 2.000000000e-01
    endloop
  endfacet
  facet normal -1.467304745e-01 -9.891765100e-01 0.000000000e+00
    outer loop
      vertex 9.754516101e-03 4.903926402e-02 0.000000000e+00
      vertex 9.754516101e-03 4.903926402e-02 2.000000000e-01
      vertex 4.900857016e-03 4.975923633e-02 0.000000000e+00
    endloop
  endfacet
  facet normal -1.467304745e-01 -9.891765100e-01 0.000000000e+00
    outer loop
      vertex 4.900857016e-03 4.975923633e-02 0.000000000e+00
      vertex 9.754516101e-03 4.903926402e-02 2.000000000e-01
      vertex 4.900857016e-03 4.975923633e-02 2.000000000e-01
    endloop
  endfacet
  facet normal -4.906767433e-02 -9.987954562e-01 0.000000000e+00
    outer loop
      vertex 4.900857016e-03 4.975923633e-02 0.000000000e+00
      vertex 4.900857016e-03 4.975923633e-02 2.000000000e-01
      vertex 3.061616998e-18 5.000000000e-02 0.000000000e+00
    endloop
  endfacet
  facet normal -4.906767433e-02 -9.987954562e-01 0.000000000e+00
    outer loop
      vertex 3.061616998e-18 5.000000000e-02 0.000000000e+00
      vertex 4.900857016e-03 4.975923633e-02 2.000000000e-01
      vertex 3.061616998e-18 5.000000000e-02 2.000000000e-01
    endloop
  endfacet
  facet normal 4.906767433e-02 -9.987954562e-01 0.000000000e+00
    outer loop
      vertex 3.061616998e-18 5.000000000e-02 0.000000000e+00
      vertex 3.061616998e-18 5.000000000e-02 2.000000000e-01
      vertex -4.900857016e-03 4.975923633e-02 0.000000000e+00
    endloop
  endfacet
  facet normal 4.906767433e-02 -9.987954562e-01 0.000000000e+00
    outer loop
      vertex -4.900857016e-03 4.975923633e-02 0.000000000e+00
      vertex 3.061616998e-18 5.000000000e-02 2.000000000e-01
      vertex -4.900857016e-03 4.975923633e-02 2.000000000e-01
    endloop
  endfacet
  facet normal 1.467304745e-01 -9.891765100e-01 0.000000000e+00
    outer loop
      vertex -4.900857016e-03 4.975923633e-02 0.000000000e+00
      vertex -4.900857016e-03 4.975923633e-02 2.000000000e-01
      vertex -9.754516101e-03 4.903926402e-02 0.000000000e+00
    endloop
  endfacet
  facet normal 1.467304745e-01 -9.891765100e-01 0.000000000e+00
    outer loop
      vertex -9.754516101e-03 4.903926402e-02 0.000000000e+00
      vertex -4.900857016e-03 4.975923633e-02 2.000000000e-01
      vertex -9.754516101e-03 4.903926402e-02 2.000000000e-01
    endloop
  endfacet
  facet normal 2.429801799e-01 -9.700312532e-01 0.000000000e+00
    outer loop
      vertex -9.754516101e-03 4.903926402e-02 0.000000000e+00
      vertex -9.754516101e-03 4.903926402e-02 2.000000000e-01
      vertex -1.451423386e-02 4.784701679e-02 0.000000000e+00
    endloop
  endfacet
  facet normal 2.429801799e-01 -9.700312532e-01 0.000000000e+00
    outer loop
      vertex -1.451423386e-02 4.784701679e-02 0.000000000e+00
      vertex -9.754516101e-03 4.903926402e-02 2.000000000e-01
      vertex -1.451423386e-02 4.784701679e-02 2.000000000e-01
    endloop
  endfacet
  facet normal 3.368898534e-01 -9.415440652e-01 0.000000000e+00
    outer loop
      vertex -1.451423386e-02 4.784701679e-02 0.000000000e+00
      vertex -1.451423386e-02 4.784701679e-02 2.000000000e-01
      vertex -1.913417162e-02 4.619397663e-02 0.000000000e+00
    endloop
  endfacet
  facet normal 3.368898534e-01 -9.415440652e-01 0.000000000e+00
    outer loop
      vertex -1.913417162e-02 4.619397663e-02 0.000000000e+00
      vertex -1.451423386e-02 4.784701679e-02 2.000000000e-01
      vertex -1.913417162e-02 4.619397663e-02 2.000000000e-01
    endloop
  endfacet
  facet normal 4.275550934e-01 -9.039892931e-01 0.000000000e+00
    outer loop
      vertex -1.913417162e-02 4.619397663e-02 0.000000000e+00
      vertex -1.913417162e-02 4.619397663e-02 2.000000000e-01
      vertex -2.356983684e-02 4.409606322e-02 0.000000000e+00
    endloop
  endfacet
  facet normal 4.275550934e-01 -9.039892931e-01 0.000000000e+00
    outer loop
      vertex -2.356983684e-02 4.409606322e-02 0.000000000e+00
      vertex -1.913417162e-02 4.619397663e-02 2.000000000e-01
      vertex -2.356983684e-02 4.409606322e-02 2.000000000e-01
    endloop
  endfacet
  facet normal 5.141027442e-01 -8.577286100e-01 0.000000000e+00
    outer loop
      vertex -2.356983684e-02 4.409606322e-02 0.000000000e+00
      vertex -2.356983684e-02 4.409606322e-02 2.000000000e-01
      vertex -2.777851165e-02 4.157348062e-02 0.000000000e+00
    endloop
  endfacet
  facet normal 5.141027442e-01 -8.577286100e-01 0.000000000e+00
    outer loop
      vertex -2.777851165e-02 4.157348062e-02 0.000000000e+00
      vertex -2.356983684e-02 4.409606322e-02 2.000000000e-01
      vertex -2.777851165e-02 4.157348062e-02 2.000000000e-01
    endloop
  endfacet
  facet normal 5.956993045e-01 -8.032075315e-01 0.000000000e+00
    outer loop
      vertex -2.777851165e-02 4.157348062e-02 0.000000000e+00
      vertex -2.777851165e-02 4.157348062e-02 2.000000000e-01
      vertex -3.171966421e-02 3.865052267e-02 0.000000000e+00
    endloop
  endfacet
  facet normal 5.956993045e-01 -8.032075315e-01 0.000000000e+00
    outer loop
      vertex -3.171966421e-02 3.865052267e-02 0.000000000e+00
      vertex -2.777851165e-02 4.157348062e-02 2.000000000e-01
      vertex -3.171966421e-02 3.865052267e-02 2.000000000e-01
    endloop
  endfacet
  facet normal 6.715589548e-01 -7.409511254e-01 0.000000000e+00
    outer loop
      vertex -3.171966421e-02 3.865052267e-02 0.000000000e+00
      vertex -3.171966421e-02 3.865052267e-02 2.000000000e-01
      vertex -3.535533906e-02 3.535533906e-02 0.000000000e+00
    endloop
  endfacet
  facet normal 6.715589548e-01 -7.409511254e-01 0.000000000e+00
    outer loop
      vertex -3.535533906e-02 3.535533906e-02 0.000000000e+00
      vertex -3.171966421e-02 3.865052267e-02 2.000000000e-01
      vertex -3.535533906e-02 3.535533906e-02 2.000000000e-01
    endloop
  endfacet
  facet normal 7.409511254e-01 -6.715589548e-01 0.000000000e+00
    outer loop
      vertex -3.535533906e-02 3.535533906e-02 0.000000000e+00
      vertex -3.535533906e-02 3.535533906e-02 2.000000000e-01
      vertex -3.865052267e-02 3.171966421e-02 0.000000000e+00
    endloop
  endfacet
  facet normal 7.409511254e-01 -6.715589548e-01 0.000000000e+00
    outer loop
      vertex -3.865052267e-02 3.171966421e-02 0.000000000e+00
      vertex -3.535533906e-02 3.535533906e-02 2.000000000e-01
      vertex -3.865052267e-02 3.171966421e-02 2.000000000e-01
    endloop
  endfacet
  facet normal 8.032075315e-01 -5.956993045e-01 0.000000000e+00
    outer loop
      vertex -3.865052267e-02 3.171966421e-02 0.000000000e+00
      vertex -3.865052267e-02 3.171966421e-02 2.000000000e-01
      vertex -4.157348062e-02 2.777851165e-02 0.000000000e+00
    endloop
  endfacet
  facet normal 8.032075315e-01 -5.956993045e-01 0.000000000e+00
    outer loop
      vertex -4.157348062e-02 2.777851165e-02 0.000000000e+00
      vertex -3.865052267e-02 3.171966421e-02 2.000000000e-01
      vertex -4.157348062e-02 2.777851165e-02 2.000000000e-01
    endloop
  endfacet
  facet normal 8.577286100e-01 -5.141027442e-01 0.000000000e+00
    outer loop
      vertex -4.157348062e-02 2.777851165e-02 0.000000000e+00
      vertex -4.157348062e-02 2.777851165e-02 2.000000000e-01
      vertex -4.409606322e-02 2.356983684e-02 0.000000000e+00
    endloop
  endfacet
  facet normal 8.577286100e-01 -5.141027442e-01 0.000000000e+00
    outer loop
      vertex -4.409606322e-02 2.356983684e-02 0.000000000e+00
      vertex -4.157348062e-02 2.777851165e-02 2.000000000e-01
      vertex -4.409606322e-02 2.356983684e-02 2.000000000e-01
    endloop
  endfacet
  facet normal 9.039892931e-01 -4.275550934e-01 0.000000000e+00
    outer loop
      vertex -4.409606322e-02 2.356983684e-02 0.000000000e+00
      vertex -4.409606322e-02 2.356983684e-02 2.000000000e-01
      vertex -4.619397663e-02 1.913417162e-02 0.000000000e+00
    endloop
  endfacet
  facet normal 9.039892931e-01 -4.275550934e-01 0.000000000e+00
    outer loop
      vertex -4.619397663e-02 1.913417162e-02 0.000000000e+00
      vertex -4.409606322e-02 2.356983684e-02 2.000000000e-01
      vertex -4.619397663e-02 1.913417162e-02 2.000000000e-01
    endloop
  endfacet
  facet normal 9.415440652e-01 -3.368898534e-01 0.000000000e+00
    outer loop
      vertex -4.619397663e-02 1.913417162e-02 0.000000000e+00
      vertex -4.619397663e-02 1.913417162e-02 2.000000000e-01
      vertex -4.784701679e-02 1.451423386e-02 0.000000000e+00
    endloop
  endfacet
  facet normal 9.415440652e-01 -3.368898534e-01 0.000000000e+00
    outer loop
      vertex -4.784701679e-02 1.451423386e-02 0.000000000e+00
      vertex -4.619397663e-02 1.913417162e-02 2.000000000e-01
      vertex -4.784701679e-02 1.451423386e-02 2.000000000e-01
    endloop
  endfacet
  facet normal 9.700312532e-01 -2.429801799e-01 0.000000000e+00
    outer loop
      vertex -4.784701679e-02 1.451423386e-02 0.000000000e+00
      vertex -4.784701679e-02 1.451423386e-02 2.000000000e-01
      vertex -4.903926402e-02 9.754516101e-03 0.000000000e+00
    endloop
  endfacet
  facet normal 9.700312532e-01 -2.429801799e-01 0.000000000e+00
    outer loop
      vertex -4.903926402e-02 9.754516101e-03 0.000000000e+00
      vertex -4.784701679e-02 1.451423386e-02 2.000000000e-01
      vertex -4.903926402e-02 9.754516101e-03 2.000000000e-01
    endloop
  endfacet
  facet normal 9.891765100e-01 -1.467304745e-01 0.000000000e+00
    outer loop
      vertex -4.903926402e-02 9.754516101e-03 0.000000000e+00
      vertex -4.903926402e-02 9.754516101e-03 2.000000000e-01
      vertex -4.975923633e-02 4.900857016e-03 0.000000000e+00
    endloop
  endfacet
  facet normal 9.891765100e-01 -1.467304745e-01 0.000000000e+00
    outer loop
      vertex -4.975923633e-02 4.900857016e-03 0.000000000e+00
      vertex -4.903926402e-02 9.754516101e-03 2.000000000e-01
      vertex -4.975923633e-02 4.900857016e-03 2.000000000e-01
    endloop
  endfacet
  facet normal 9.987954562e-01 -4.906767433e-02 0.000000000e+00
    outer loop
      vertex -4.975923633e-02 4.900857016e-03 0.000000000e+00
      vertex -4.975923633e-02 4.900857016e-03 2.000000000e-01
      vertex -5.000000000e-02 6.123233996e-18 0.000000000e+00
    endloop
  endfacet
  facet normal 9.987954562e-01 -4.906767433e-02 0.000000000e+00
    outer loop
      vertex -5.000000000e-02 6.123233996e-18 0.000000000e+00
      vertex -4.975923633e-02 4.900857016e-03 2.000000000e-01
      vertex -5.000000000e-02 6.123233996e-18 2.000000000e-01
    endloop
  endfacet
  facet normal 9.987954562e-01 4.906767433e-02 -0.000000000e+00
    outer loop
      vertex -5.000000000e-02 6.123233996e-18 0.000000000e+00
      vertex -5.000000000e-02 6.123233996e-18 2.000000000e-01
      vertex -4.975923633e-02 -4.900857016e-03 0.000000000e+00
    endloop
  endfacet
  facet normal 9.987954562e-01 4.906767433e-02 -0.000000000e+00
    outer loop
      vertex -4.975923633e-02 -4.900857016e-03 0.000000000e+00
      vertex -5.000000000e-02 6.123233996e-18 2.000000000e-01
      vertex -4.975923633e-02 -4.900857016e-03 2.000000000e-01
    endloop
  endfacet
  facet normal 9.891765100e-01 1.467304745e-01 -0.000000000e+00
    outer loop
      vertex -4.975923633e-02 -4.900857016e-03 0.000000000e+00
      vertex -4.975923633e-02 -4.900857016e-03 2.000000000e-01
      vertex -4.903926402e-02 -9.754516101e-03 0.000000000e+00
    endloop
  endfacet
  facet normal 9.891765100e-01 1.467304745e-01 -0.000000000e+00
    outer loop
      vertex -4.903926402e-02 -9.754516101e-03 0.000000000e+00
      vertex -4.975923633e-02 -4.900857016e-03 2.000000000e-01
      vertex -4.903926402e-02 -9.754516101e-03 2.000000000e-01
    endloop
  endfacet
  facet normal 9.700312532e-01 2.429801799e-01 -0.000000000e+00
    outer loop
      vertex -4.903926402e-02 -9.754516101e-03 0.000000000e+00
      vertex -4.903926402e-02 -9.754516101e-03 2.000000000e-01
      vertex -4.784701679e-02 -1.451423386e-02 0.000000000e+00
    endloop
  endfacet
  facet normal 9.700312532e-01 2.429801799e-01 -0.000000000e+00
    outer loop
      vertex -4.784701679e-02 -1.451423386e-02 0.000000000e+00
      vertex -4.903926402e-02 -9.754516101e-03 2.000000000e-01
      vertex -4.784701679e-02 -1.451423386e-02 2.000000000e-01
    endloop
  endfacet
  facet normal 9.415440652e-01 3.368898534e-01 -0.000000000e+00
    outer loop
      vertex -4.784701679e-02 -1.451423386e-02 0.000000000e+00
      vertex -4.784701679e-02 -1.451423386e-02 2.000000000e-01
      vertex -4.619397663e-02 -1.913417162e-02 0.000000000e+00
    endloop
  endfacet
  facet normal 9.415440652e-01 3.368898534e-01 -0.000000000e+00
    outer loop
      vertex -4.619397663e-02 -1.913417162e-02 0.000000000e+00
      vertex -4.784701679e-02 -1.451423386e-02 2.000000000e-01
      vertex -4.619397663e-02 -1.913417162e-02 2.000000000e-01
    endloop
  endfacet
  facet normal 9.039892931e-01 4.275550934e-01 -0.000000000e+00
    outer loop
      vertex -4.619397663e-02 -1.913417162e-02 0.000000000e+00
      vertex -4.619397663e-02 -1.913417162e-02 2.000000000e-01
      vertex -4.409606322e-02 -2.356983684e-02 0.000000000e+00
    endloop
  endfacet
  facet normal 9.039892931e-01 4.275550934e-01 -0.000000000e+00
    outer loop
      vertex -4.409606322e-02 -2.356983684e-02 0.000000000e+00
      vertex -4.619397663e-02 -1.913417162e-02 2.000000000e-01
      vertex -4.409606322e-02 -2.356983684e-02 2.000000000e-01
    endloop
  endfacet
  facet normal 8.577286100e-01 5.141027442e-01 -0.000000000e+00
    outer loop
      vertex -4.409606322e-02 -2.356983684e-02 0.000000000e+00
      vertex -4.409606322e-02 -2.356983684e-02 2.000000000e-01
      vertex -4.157348062e-02 -2.777851165e-02 0.000000000e+00
    endloop
  endfacet
  facet normal 8.577286100e-01 5.141027442e-01 -0.000000000e+00
    outer loop
      vertex -4.157348062e-02 -2.777851165e-02 0.000000000e+00
      vertex -4.409606322e-02 -2.356983684e-02 2.000000000e-01
      vertex -4.157348062e-02 -2.777851165e-02 2.000000000e-01
    endloop
  endfacet
  facet normal 8.032075315e-01 5.956993045e-01 -0.000000000e+00
    outer loop
      vertex -4.157348062e-02 -2.777851165e-02 0.000000000e+00
      vertex -4.157348062e-02 -2.777851165e-02 2.000000000e-01
      vertex -3.865052267e-02 -3.171966421e-02 0.000000000e+00
    endloop
  endfacet
  facet normal 8.032075315e-01 5.956993045e-01 -0.000000000e+00
    outer loop
      vertex -3.865052267e-02 -3.171966421e-02 0.000000000e+00
      vertex -4.157348062e-02 -2.777851165e-02 2.000000000e-01
      vertex -3.865052267e-02 -3.171966421e-02 2.000000000e-01
    endloop
  endfacet
  facet normal 7.409511254e-01 6.715589548e-01 -0.000000000e+00
    outer loop
      vertex -3.865052267e-02 -3.171966421e-02 0.000000000e+00
      vertex -3.865052267e-02 -3.171966421e-02 2.000000000e-01
      vertex -3.535533906e-02 -3.535533906e-02 0.000000000e+00
    endloop
  endfacet
  facet normal 7.409511254e-01 6.715589548e-01 -0.000000000e+00
    outer loop
      vertex -3.535533906e-02 -3.535533906e-02 0.000000000e+00
      vertex -3.865052267e-02 -3.171966421e-02 2.000000000e-01
      vertex -3.535533906e-02 -3.535533906e-02 2.000000000e-01
    endloop
  endfacet
  facet normal 6.715589548e-01 7.409511254e-01 -0.000000000e+00
    outer loop
      vertex -3.535533906e-02 -3.535533906e-02 0.000000000e+00
      vertex -3.535533906e-02 -3.535533906e-02 2.000000000e-01
      vertex -3.171966421e-02 -3.865052267e-02 0.000000000e+00
    endloop
  endfacet
  facet normal 6.715589548e-01 7.409511254e-01 -0.000000000e+00
    outer loop
      vertex -3.171966421e-02 -3.865052267e-02 0.000000000e+00
      vertex -3.535533906e-02 -3.535533906e-02 2.000000000e-01
      vertex -3.171966421e-02 -3.865052267e-02 2.000000000e-01
    endloop
  endfacet
  facet normal 5.956993045e-01 8.032075315e-01 -0.000000000e+00
    outer loop
      vertex -3.171966421e-02 -3.865052267e-02 0.000000000e+00
      vertex -3.171966421e-02 -3.865052267e-02 2.000000000e-01
      vertex -2.777851165e-02 -4.157348062e-02 0.000000000e+00
    endloop
  endfacet
  facet normal 5.956993045e-01 8.032075315e-01 -0.000000000e+00
    outer loop
      vertex -2.777851165e-02 -4.157348062e-02 0.000000000e+00
      vertex -3.171966421e-02 -3.865052267e-02 2.000000000e-01
      vertex -2.777851165e-02 -4.157348062e-02 2.000000000e-01
    endloop
  endfacet
  facet normal 5.141027442e-01 8.577286100e-01 -0.000000000e+00
    outer loop
      vertex -2.777851165e-02 -4.157348062e-02 0.000000000e+00
      vertex -2.777851165e-02 -4.157348062e-02 2.000000000e-01
      vertex -2.356983684e-02 -4.409606322e-02 0.000000000e+00
    endloop
  endfacet
  facet normal 5.141027442e-01 8.577286100e-01 -0.000000000e+00
    outer loop
      vertex -2.356983684e-02 -4.409606322e-02 0.000000000e+00
      vertex -2.777851165e-02 -4.157348062e-02 2.000000000e-01
      vertex -2.356983684e-02 -4.409606322e-02 2.000000000e-01
    endloop
  endfacet
  facet normal 4.275550934e-01 9.039892931e-01 -0.000000000e+00
    outer loop
      vertex -2.356983684e-02 -4.409606322e-02 0.000000000e+00
      vertex -2.356983684e-02 -4.409606322e-02 2.000000000e-01
      vertex -1.913417162e-02 -4.619397663e-02 0.000000000e+00
    endloop
  endfacet
  facet normal 4.275550934e-01 9.039892931e-01 -0.000000000e+00
    outer loop
      vertex -1.913417162e-02 -4.619397663e-02 0.000000000e+00
      vertex -2.356983684e-02 -4.409606322e-02 2.000000000e-01
      vertex -1.913417162e-02 -4.619397663e-02 2.000000000e-01
    endloop
  endfacet
  facet normal 3.368898534e-01 9.415440652e-01 -0.000000000e+00
    outer loop
      vertex -1.913417162e-02 -4.619397663e-02 0.000000000e+00
      vertex -1.913417162e-02 -4.619397663e-02 2.000000000e-01
      vertex -1.451423386e-02 -4.784701679e-02 0.000000000e+00
    endloop
  endfacet
  facet normal 3.368898534e-01 9.415440652e-01 -0.000000000e+00
    outer loop
      vertex -1.451423386e-02 -4.784701679e-02 0.000000000e+00
      vertex -1.913417162e-02 -4.619397663e-02 2.000000000e-01
      vertex -1.451423386e-02 -4.784701679e-02 2.000000000e-01
    endloop
  endfacet
  facet normal 2.429801799e-01 9.700312532e-01 -0.000000000e+00
    outer loop
      vertex -1.451423386e-02 -4.784701679e-02 0.000000000e+00
      vertex -1.451423386e-02 -4.784701679e-02 2.000000000e-01
      vertex -9.754516101e-03 -4.903926402e-02 0.000000000e+00
    endloop
  endfacet
  facet normal 2.429801799e-01 9.700312532e-01 -0.000000000e+00
    outer loop
      vertex -9.754516101e-03 -4.903926402e-02 0.000000000e+00
      vertex -1.451423386e-02 -4.784701679e-02 2.000000000e-01
      vertex -9.754516101e-03 -4.903926402e-02 2.000000000e-01
    endloop
  endfacet
  facet normal 1.467304745e-01 9.891765100e-01 -0.000000000e+00
    outer loop
      vertex -9.754516101e-03 -4.903926402e-02 0.000000000e+00
      vertex -9.754516101e-03 -4.903926402e-02 2.000000000e-01
      vertex -4.900857016e-03 -4.975923633e-02 0.000000000e+00
    endloop
  endfacet
  facet normal 1.467304745e-01 9.891765100e-01 -0.000000000e+00
    outer loop
      vertex -4.900857016e-03 -4.975923633e-02 0.000000000e+00
      vertex -9.754516101e-03 -4.903926402e-02 2.000000000e-01
      vertex -4.900857016e-03 -4.975923633e-02 2.000000000e-01
    endloop
  endfacet
  facet normal 4.906767433e-02 9.987954562e-01 -0.000000000e+00
    outer loop
      vertex -4.900857016e-03 -4.975923633e-02 0.000000000e+00
      vertex -4.900857016e-03 -4.975923633e-02 2.000000000e-01
      vertex -9.184850994e-18 -5.000000000e-02 0.000000000e+00
    endloop
  endfacet
  facet normal 4.906767433e-02 9.987954562e-01 -0.000000000e+00
    outer loop
      vertex -9.184850994e-18 -5.000000000e-02 0.000000000e+00
      vertex -4.900857016e-03 -4.975923633e-02 2.000000000e-01
      vertex -9.184850994e-18 -5.000000000e-02 2.000000000e-01
    endloop
  endfacet
  facet normal -4.906767433e-02 9.987954562e-01 0.000000000e+00
    outer loop
      vertex -9.184850994e-18 -5.000000000e-02 0.000000000e+00
      vertex -9.184850994e-18 -5.000000000e-02 2.000000000e-01
      vertex 4.900857016e-03 -4.975923633e-02 0.000000000e+00
    endloop
  endfacet
  facet normal -4.906767433e-02 9.987954562e-01 0.000000000e+00
    outer loop
      vertex 4.900857016e-03 -4.975923633e-02 0.000000000e+00
      vertex -9.184850994e-18 -5.000000000e-02 2.000000000e-01
      vertex 4.900857016e-03 -4.975923633e-02 2.000000000e-01
    endloop
  endfacet
  facet normal -1.467304745e-01 9.891765100e-01 0.000000000e+00
    outer loop
      vertex 4.900857016e-03 -4.975923633e-02 0.000000000e+00
      vertex 4.900857016e-03 -4.975923633e-02 2.000000000e-01
      vertex 9.754516101e-03 -4.903926402e-02 0.000000000e+00
    endloop
  endfacet
  facet normal -1.467304745e-01 9.891765100e-01 0.000000000e+00
    outer loop
      vertex 9.754516101e-03 -4.903926402e-02 0.000000000e+00
      vertex 4.900857016e-03 -4.975923633e-02 2.000000000e-01
      vertex 9.754516101e-03 -4.903926402e-02 2.000000000e-01
    endloop
  endfacet
  facet normal -2.429801799e-01 9.700312532e-01 0.000000000e+00
    outer loop
      vertex 9.754516101e-03 -4.903926402e-02 0.000000000e+00
      vertex 9.754516101e-03 -4.903926402e-02 2.000000000e-01
      vertex 1.451423386e-02 -4.784701679e-02 0.000000000e+00
    endloop
  endfacet
  facet normal -2.429801799e-01 9.700312532e-01 0.000000000e+00
    outer loop
      vertex 1.451423386e-02 -4.784701679e-02 0.000000000e+00
      vertex 9.754516101e-03 -4.903926402e-02 2.000000000e-01
      vertex 1.451423386e-02 -4.784701679e-02 2.000000000e-01
    endloop
  endfacet
  facet normal -3.368898534e-01 9.415440652e-01 0.000000000e+00
    outer loop
      vertex 1.451423386e-02 -4.784701679e-02 0.000000000e+00
      vertex 1.451423386e-02 -4.784701679e-02 2.000000000e-01
      vertex 1.913417162e-02 -4.619397663e-02 0.000000000e+00
    endloop
  endfacet
  facet normal -3.368898534e-01 9.415440652e-01 0.000000000e+00
    outer loop
      vertex 1.913417162e-02 -4.619397663e-02 0.000000000e+00
      vertex 1.451423386e-02 -4.784701679e-02 2.000000000e-01
      vertex 1.913417162e-02 -4.619397663e-02 2.000000000e-01
    endloop
  endfacet
  facet normal -4.275550934e-01 9.039892931e-01 0.000000000e+00
    outer loop
      vertex 1.913417162e-02 -4.619397663e-02 0.000000000e+00
      vertex 1.913417162e-02 -4.619397663e-02 2.000000000e-01
      vertex 2.356983684e-02 -4.409606322e-02 0.000000000e+00
    endloop
  endfacet
  facet normal -4.275550934e-01 9.039892931e-01 0.000000000e+00
    outer loop
      vertex 2.356983684e-02 -4.409606322e-02 0.000000000e+00
      vertex 1.913417162e-02 -4.619397663e-02 2.000000000e-01
      vertex 2.356983684e-02 -4.409606322e-02 2.000000000e-01
    endloop
  endfacet
  facet normal -5.141027442e-01 8.577286100e-01 0.000000000e+00
    outer loop
      vertex 2.356983684e-02 -4.409606322e-02 0.000000000e+00
      vertex 2.356983684e-02 -4.409606322e-02 2.000000000e-01
      vertex 2.777851165e-02 -4.157348062e-02 0.000000000e+00
    endloop
  endfacet
  facet normal -5.141027442e-01 8.577286100e-01 0.000000000e+00
    outer loop
      vertex 2.777851165e-02 -4.157348062e-02 0.000000000e+00
      vertex 2.356983684e-02 -4.409606322e-02 2.000000000e-01
      vertex 2.777851165e-02 -4.157348062e-02 2.000000000e-01
    endloop
  endfacet
  facet normal -5.956993045e-01 8.032075315e-01 0.000000000e+00
    outer loop
      vertex 2.777851165e-02 -4.157348062e-02 0.000000000e+00
      vertex 2.777851165e-02 -4.157348062e-02 2.000000000e-01
      vertex 3.171966421e-02 -3.865052267e-02 0.000000000e+00
    endloop
  endfacet
  facet normal -5.956993045e-01 8.032075315e-01 0.000000000e+00
    outer loop
      vertex 3.171966421e-02 -3.865052267e-02 0.000000000e+00
      vertex 2.777851165e-02 -4.157348062e-02 2.000000000e-01
      vertex 3.171966421e-02 -3.865052267e-02 2.000000000e-01
    endloop
  endfacet
  facet normal -6.715589548e-01 7.409511254e-01 0.000000000e+00
    outer loop
      vertex 3.171966421e-02 -3.865052267e-02 0.000000000e+00
      vertex 3.171966421e-02 -3.865052267e-02 2.000000000e-01
      vertex 3.535533906e-02 -3.535533906e-02 0.000000000e+00
    endloop
  endfacet
  facet normal -6.715589548e-01 7.409511254e-01 0.000000000e+00
    outer loop
      vertex 3.535533906e-02 -3.535533906e-02 0.000000000e+00
      vertex 3.171966421e-02 -3.865052267e-02 2.000000000e-01
      vertex 3.535533906e-02 -3.535533906e-02 2.000000000e-01
    endloop
  endfacet
  facet normal -7.409511254e-01 6.715589548e-01 0.000000000e+00
    outer loop
      vertex 3.535533906e-02 -3.535533906e-02 0.000000000e+00
      vertex 3.535533906e-02 -3.535533906e-02 2.000000000e-01
      vertex 3.865052267e-02 -3.171966421e-02 0.000000000e+00
    endloop
  endfacet
  facet normal -7.409511254e-01 6.715589548e-01 0.000000000e+00
    outer loop
      vertex 3.865052267e-02 -3.171966421e-02 0.000000000e+00
      vertex 3.535533906e-02 -3.535533906e-02 2.000000000e-01
      vertex 3.865052267e-02 -3.171966421e-02 2.000000000e-01
    endloop
  endfacet
  facet normal -8.032075315e-01 5.956993045e-01 0.000000000e+00
    outer loop
      vertex 3.865052267e-02 -3.171966421e-02 0.000000000e+00
      vertex 3.865052267e-02 -3.171966421e-02 2.000000000e-01
      vertex 4.157348062e-02 -2.777851165e-02 0.000000000e+00
    endloop
  endfacet
  facet normal -8.032075315e-01 5.956993045e-01 0.000000000e+00
    outer loop
      vertex 4.157348062e-02 -2.777851165e-02 0.000000000e+00
      vertex 3.865052267e-02 -3.171966421e-02 2.000000000e-01
      vertex 4.157348062e-02 -2.777851165e-02 2.000000000e-01
    endloop
  endfacet
  facet normal -8.577286100e-01 5.141027442e-01 0.000000000e+00
    outer loop
      vertex 4.157348062e-02 -2.777851165e-02 0.000000000e+00
      vertex 4.157348062e-02 -2.777851165e-02 2.000000000e-01
      vertex 4.409606322e-02 -2.356983684e-02 0.000000000e+00
    endloop
  endfacet
  facet normal -8.577286100e-01 5.141027442e-01 0.000000000e+00
    outer loop
      vertex 4.409606322e-02 -2.356983684e-02 0.000000000e+00
      vertex 4.157348062e-02 -2.777851165e-02 2.000000000e-01
      vertex 4.409606322e-02 -2.356983684e-02 2.000000000e-01
    endloop
  endfacet
  facet normal -9.039892931e-01 4.275550934e-01 0.000000000e+00
    outer loop
      vertex 4.409606322e-02 -2.356983684e-02 0.000000000e+00
      vertex 4.409606322e-02 -2.356983684e-02 2.000000000e-01
      vertex 4.619397663e-02 -1.913417162e-02 0.000000000e+00
    endloop
  endfacet
  facet normal -9.039892931e-01 4.275550934e-01 0.000000000e+00
    outer loop
      vertex 4.619397663e-02 -1.913417162e-02 0.000000000e+00
      vertex 4.409606322e-02 -2.356983684e-02 2.000000000e-01
      vertex 4.619397663e-02 -1.913417162e-02 2.000000000e-01
    endloop
  endfacet
  facet normal -9.415440652e-01 3.368898534e-01 0.000000000e+00
    outer loop
      vertex 4.619397663e-02 -1.913417162e-02 0.000000000e+00
      vertex 4.619397663e-02 -1.913417162e-02 2.000000000e-01
      vertex 4.784701679e-02 -1.451423386e-02 0.000000000e+00
    endloop
  endfacet
  facet normal -9.415440652e-01 3.368898534e-01 0.000000000e+00
    outer loop
      vertex 4.784701679e-02 -1.451423386e-02 0.000000000e+00
      vertex 4.619397663e-02 -1.913417162e-02 2.000000000e-01
      vertex 4.784701679e-02 -1.451423386e-02 2.000000000e-01
    endloop
  endfacet
  facet normal -9.700312532e-01 2.429801799e-01 0.000000000e+00
    outer loop
      vertex 4.784701679e-02 -1.451423386e-02 0.000000000e+00
      vertex 4.784701679e-02 -1.451423386e-02 2.000000000e-01
      vertex 4.903926402e-02 -9.754516101e-03 0.000000000e+00
    endloop
  endfacet
  facet normal -9.700312532e-01 2.429801799e-01 0.000000000e+00
    outer loop
      vertex 4.903926402e-02 -9.754516101e-03 0.000000000e+00
      vertex 4.784701679e-02 -1.451423386e-02 2.000000000e-01
      vertex 4.903926402e-02 -9.754516101e-03 2.000000000e-01
    endloop
  endfacet
  facet normal -9.891765100e-01 1.467304745e-01 0.000000000e+00
    outer loop
      vertex 4.903926402e-02 -9.754516101e-03 0.000000000e+00
      vertex 4.903926402e-02 -9.754516101e-03 2.000000000e-01
      vertex 4.975923633e-02 -4.900857016e-03 0.000000000e+00
    endloop
  endfacet
  facet normal -9.891765100e-01 1.467304745e-01 0.000000000e+00
    outer loop
      vertex 4.975923633e-02 -4.900857016e-03 0.000000000e+00
      vertex 4.903926402e-02 -9.754516101e-03 2.000000000e-01
      vertex 4.975923633e-02 -4.900857016e-03 2.000000000e-01
    endloop
  endfacet
  facet normal -9.987954562e-01 4.906767433e-02 0.000000000e+00
    outer loop
      vertex 4.975923633e-02 -4.900857016e-03 0.000000000e+00
      vertex 4.975923633e-02 -4.900857016e-03 2.000000000e-01
      vertex 5.000000000e-02 0.000000000e+00 0.000000000e+00
    endloop
  endfacet
  facet normal -9.987954562e-01 4.906767433e-02 0.000000000e+00
    outer loop
      vertex 5.000000000e-02 0.000000000e+00 0.000000000e+00
      vertex 4.975923633e-02 -4.900857016e-03 2.000000000e-01
      vertex 5.000000000e-02 0.000000000e+00 2.000000000e-01
    endloop
  endfacet
endsolid silo
